<?xml version="1.0" standalone="no"?>
<!DOCTYPE svg PUBLIC "-//W3C//DTD SVG 20010904//EN"
 "http://www.w3.org/TR/2001/REC-SVG-20010904/DTD/svg10.dtd">
<svg version="1.0" xmlns="http://www.w3.org/2000/svg"
 width="301.000000pt" height="301.000000pt" viewBox="0 0 301.000000 301.000000"
 preserveAspectRatio="xMidYMid meet">
<metadata>
Created by potrace 1.11, written by Peter Selinger 2001-2013
</metadata>
<g transform="translate(0.000000,301.000000) scale(0.100000,-0.100000)"
fill="#000000" stroke="none">
<path d="M1226 2734 c-267 -53 -450 -195 -531 -414 -43 -114 -43 -315 -1 -495
2 -11 7 -33 11 -50 16 -71 81 -259 126 -364 129 -301 344 -656 599 -990 63
-83 121 -151 128 -151 18 0 26 -13 -129 220 -408 616 -606 1032 -687 1442 -5
26 -10 98 -10 160 0 98 3 124 27 193 83 247 318 400 627 410 283 9 560 -127
654 -318 39 -81 47 -123 49 -253 3 -129 8 -177 27 -223 13 -32 80 -119 116
-151 23 -20 68 -90 68 -105 0 -6 -20 -32 -45 -57 -53 -54 -57 -85 -20 -140
l25 -37 -22 -13 c-13 -7 -56 -12 -95 -13 -79 0 -95 -9 -37 -20 47 -8 82 -25
88 -40 2 -7 -9 -34 -25 -60 -33 -53 -37 -74 -21 -129 11 -38 10 -40 -23 -72
-43 -40 -115 -59 -204 -51 -132 11 -269 86 -407 224 -171 172 -544 747 -544
839 0 45 33 96 75 118 35 18 43 18 130 6 117 -16 139 -9 225 71 36 33 80 67
98 75 30 13 36 13 58 -1 49 -32 75 -125 77 -272 3 -213 -39 -388 -108 -453
-43 -40 -100 -22 -147 45 -24 36 -38 44 -38 22 0 -22 59 -104 88 -123 33 -22
81 -22 115 1 55 35 125 188 142 305 3 25 9 59 11 75 7 39 7 181 0 223 -3 17
-8 46 -11 64 -10 54 -46 127 -77 153 -53 45 -100 32 -223 -59 -112 -84 -100
-81 -267 -72 -122 7 -204 -74 -194 -192 6 -75 102 -251 279 -517 215 -321 322
-426 516 -509 169 -73 337 -93 411 -50 66 39 83 82 66 172 -7 37 -5 47 12 65
26 28 44 75 37 96 -3 10 8 26 30 44 44 35 47 79 11 118 -28 30 -24 39 34 98
53 52 39 98 -66 226 -112 137 -117 147 -111 270 4 95 1 136 -17 230 -12 65
-69 160 -136 226 -79 78 -226 156 -360 190 -106 27 -302 34 -404 13z"/>
</g>
</svg>
