<?xml version="1.0" encoding="utf-8"?>
<!-- Generator: Adobe Illustrator 21.0.0, SVG Export Plug-In . SVG Version: 6.00 Build 0)  -->
<svg version="1.1" id="Layer_1" xmlns="http://www.w3.org/2000/svg" xmlns:xlink="http://www.w3.org/1999/xlink" x="0px" y="0px" width="500" height="500"
	 viewBox="0 0 500 500" style="enable-background:new 0 0 500 500;" xml:space="preserve">
<g>
	<path d="M228.8,206.1c-0.3,4.5-2,8.1-5,10.7c-3,2.6-7,3.9-11.9,3.9c-5.4,0-9.6-1.8-12.7-5.4c-3.1-3.6-4.6-8.6-4.6-14.9v-2.6
		c0-4,0.7-7.6,2.1-10.7c1.4-3.1,3.5-5.4,6.1-7.1c2.6-1.6,5.7-2.5,9.2-2.5c4.9,0,8.8,1.3,11.7,3.9c3,2.6,4.7,6.2,5.1,10.9h-8.7
		c-0.2-2.7-1-4.7-2.3-5.9c-1.3-1.2-3.3-1.8-5.9-1.8c-2.9,0-5,1-6.5,3.1c-1.4,2.1-2.2,5.3-2.2,9.6v3.2c0,4.5,0.7,7.9,2.1,10
		c1.4,2.1,3.5,3.1,6.5,3.1c2.7,0,4.7-0.6,6-1.8s2.1-3.1,2.3-5.7H228.8z"/>
	<path d="M267.5,206.1c-0.3,4.5-2,8.1-5,10.7c-3,2.6-7,3.9-11.9,3.9c-5.4,0-9.6-1.8-12.7-5.4c-3.1-3.6-4.6-8.6-4.6-14.9v-2.6
		c0-4,0.7-7.6,2.1-10.7c1.4-3.1,3.5-5.4,6.1-7.1c2.6-1.6,5.7-2.5,9.2-2.5c4.9,0,8.8,1.3,11.7,3.9c3,2.6,4.7,6.2,5.1,10.9h-8.7
		c-0.2-2.7-1-4.7-2.3-5.9c-1.3-1.2-3.3-1.8-5.9-1.8c-2.9,0-5,1-6.5,3.1s-2.2,5.3-2.2,9.6v3.2c0,4.5,0.7,7.9,2.1,10
		c1.4,2.1,3.5,3.1,6.5,3.1c2.7,0,4.7-0.6,6-1.8s2.1-3.1,2.3-5.7H267.5z"/>
	<path d="M273.2,220.1v-42h12.9c3.7,0,7,0.8,9.9,2.5c2.9,1.7,5.2,4,6.8,7.1c1.6,3.1,2.5,6.6,2.5,10.5v1.9c0,3.9-0.8,7.4-2.4,10.4
		c-1.6,3-3.9,5.4-6.8,7.1c-2.9,1.7-6.2,2.5-9.9,2.5H273.2z M281.9,185.1v28.1h4.2c3.4,0,6-1.1,7.8-3.3c1.8-2.2,2.7-5.4,2.7-9.5v-2.2
		c0-4.3-0.9-7.5-2.7-9.7c-1.8-2.2-4.4-3.3-7.8-3.3H281.9z"/>
</g>
<g>
	<path d="M185.8,273.8c-0.1,1.5-0.7,2.7-1.7,3.5s-2.3,1.3-3.9,1.3c-1.8,0-3.2-0.6-4.2-1.8s-1.5-2.8-1.5-4.9V271
		c0-1.3,0.2-2.5,0.7-3.5c0.5-1,1.1-1.8,2-2.3c0.9-0.5,1.9-0.8,3-0.8c1.6,0,2.9,0.4,3.9,1.3c1,0.9,1.5,2.1,1.7,3.6H183
		c-0.1-0.9-0.3-1.5-0.7-1.9c-0.4-0.4-1.1-0.6-2-0.6c-1,0-1.7,0.3-2.1,1c-0.5,0.7-0.7,1.7-0.7,3.2v1c0,1.5,0.2,2.6,0.7,3.3
		c0.5,0.7,1.2,1,2.1,1c0.9,0,1.5-0.2,2-0.6s0.7-1,0.7-1.9H185.8z"/>
	<path d="M192.3,278.6c-1.5,0-2.7-0.5-3.7-1.4c-0.9-0.9-1.4-2.2-1.4-3.7v-0.3c0-1,0.2-2,0.6-2.8c0.4-0.8,1-1.4,1.7-1.9
		c0.7-0.4,1.6-0.7,2.5-0.7c1.4,0,2.5,0.4,3.3,1.3s1.2,2.2,1.2,3.8v1.1h-6.6c0.1,0.7,0.4,1.2,0.8,1.6c0.4,0.4,1,0.6,1.7,0.6
		c1.1,0,1.9-0.4,2.5-1.2l1.4,1.5c-0.4,0.6-1,1-1.7,1.4C193.9,278.4,193.1,278.6,192.3,278.6z M191.9,270.1c-0.5,0-1,0.2-1.3,0.6
		s-0.6,0.9-0.7,1.6h3.8V272c0-0.6-0.2-1.1-0.5-1.4C193,270.3,192.5,270.1,191.9,270.1z"/>
	<path d="M200.6,268.1l0.1,1.2c0.7-0.9,1.7-1.4,3-1.4c1.1,0,1.9,0.3,2.4,1s0.8,1.6,0.8,2.9v6.7h-2.8v-6.6c0-0.6-0.1-1-0.4-1.3
		c-0.3-0.3-0.7-0.4-1.3-0.4c-0.8,0-1.4,0.3-1.7,1v7.3H198v-10.3H200.6z"/>
	<path d="M212.3,265.5v2.5h1.8v2h-1.8v5.1c0,0.4,0.1,0.7,0.2,0.8c0.1,0.2,0.4,0.2,0.8,0.2c0.3,0,0.6,0,0.8-0.1v2.1
		c-0.5,0.2-1.1,0.2-1.7,0.2c-1.9,0-2.9-1-3-2.9v-5.6H208v-2h1.5v-2.5H212.3z"/>
	<path d="M221.4,270.7c-0.4-0.1-0.7-0.1-1-0.1c-1,0-1.7,0.4-2,1.1v6.7h-2.8v-10.3h2.6l0.1,1.2c0.6-0.9,1.3-1.4,2.3-1.4
		c0.3,0,0.6,0,0.9,0.1L221.4,270.7z"/>
	<path d="M221.9,273.1c0-1,0.2-1.9,0.6-2.7c0.4-0.8,1-1.4,1.7-1.9c0.7-0.4,1.6-0.7,2.6-0.7c1.4,0,2.5,0.4,3.4,1.3s1.4,2,1.5,3.5
		l0,0.7c0,1.6-0.4,2.9-1.3,3.8c-0.9,1-2.1,1.4-3.6,1.4c-1.5,0-2.7-0.5-3.6-1.4c-0.9-1-1.3-2.2-1.3-3.9V273.1z M224.7,273.3
		c0,1,0.2,1.7,0.6,2.2c0.4,0.5,0.9,0.8,1.6,0.8c0.7,0,1.2-0.3,1.6-0.8c0.4-0.5,0.6-1.3,0.6-2.5c0-1-0.2-1.7-0.6-2.2
		c-0.4-0.5-0.9-0.8-1.6-0.8c-0.7,0-1.2,0.3-1.6,0.8C224.9,271.4,224.7,272.2,224.7,273.3z"/>
	<path d="M249.3,273.8c-0.1,1.5-0.7,2.7-1.7,3.5s-2.3,1.3-3.9,1.3c-1.8,0-3.2-0.6-4.2-1.8c-1-1.2-1.5-2.8-1.5-4.9V271
		c0-1.3,0.2-2.5,0.7-3.5c0.5-1,1.1-1.8,2-2.3c0.9-0.5,1.9-0.8,3-0.8c1.6,0,2.9,0.4,3.9,1.3c1,0.9,1.5,2.1,1.7,3.6h-2.9
		c-0.1-0.9-0.3-1.5-0.7-1.9s-1.1-0.6-2-0.6c-1,0-1.7,0.3-2.1,1c-0.5,0.7-0.7,1.7-0.7,3.2v1c0,1.5,0.2,2.6,0.7,3.3s1.2,1,2.1,1
		c0.9,0,1.5-0.2,2-0.6c0.4-0.4,0.7-1,0.7-1.9H249.3z"/>
	<path d="M257.2,277.3c-0.7,0.8-1.6,1.2-2.8,1.2c-1.1,0-1.9-0.3-2.5-1c-0.6-0.6-0.9-1.6-0.9-2.8v-6.8h2.8v6.7c0,1.1,0.5,1.6,1.5,1.6
		c0.9,0,1.6-0.3,1.9-1v-7.3h2.8v10.3h-2.6L257.2,277.3z"/>
	<path d="M264.9,278.4h-2.8v-14.6h2.8V278.4z"/>
	<path d="M270.4,265.5v2.5h1.8v2h-1.8v5.1c0,0.4,0.1,0.7,0.2,0.8c0.1,0.2,0.4,0.2,0.8,0.2c0.3,0,0.6,0,0.8-0.1v2.1
		c-0.5,0.2-1.1,0.2-1.7,0.2c-1.9,0-2.9-1-3-2.9v-5.6h-1.5v-2h1.5v-2.5H270.4z"/>
	<path d="M279.9,277.3c-0.7,0.8-1.6,1.2-2.8,1.2c-1.1,0-1.9-0.3-2.5-1c-0.6-0.6-0.9-1.6-0.9-2.8v-6.8h2.8v6.7c0,1.1,0.5,1.6,1.5,1.6
		c0.9,0,1.6-0.3,1.9-1v-7.3h2.8v10.3H280L279.9,277.3z"/>
	<path d="M290.4,270.7c-0.4-0.1-0.7-0.1-1-0.1c-1,0-1.7,0.4-2,1.1v6.7h-2.8v-10.3h2.6l0.1,1.2c0.6-0.9,1.3-1.4,2.3-1.4
		c0.3,0,0.6,0,0.9,0.1L290.4,270.7z"/>
	<path d="M297.4,278.4c-0.1-0.2-0.2-0.6-0.3-0.9c-0.7,0.7-1.5,1.1-2.6,1.1c-1,0-1.8-0.3-2.5-0.9c-0.7-0.6-1-1.3-1-2.2
		c0-1.1,0.4-1.9,1.2-2.5c0.8-0.6,2-0.9,3.5-0.9h1.3v-0.6c0-0.5-0.1-0.9-0.4-1.1c-0.2-0.3-0.6-0.4-1.2-0.4c-0.5,0-0.8,0.1-1.1,0.3
		c-0.3,0.2-0.4,0.5-0.4,0.9h-2.8c0-0.6,0.2-1.1,0.6-1.7c0.4-0.5,0.9-0.9,1.6-1.2s1.4-0.4,2.3-0.4c1.3,0,2.3,0.3,3,1
		c0.7,0.6,1.1,1.5,1.1,2.7v4.5c0,1,0.1,1.7,0.4,2.2v0.2H297.4z M295.2,276.5c0.4,0,0.8-0.1,1.1-0.3c0.3-0.2,0.6-0.4,0.8-0.7v-1.8h-1
		c-1.4,0-2.1,0.5-2.2,1.4l0,0.2c0,0.3,0.1,0.6,0.4,0.8C294.4,276.4,294.7,276.5,295.2,276.5z"/>
	<path d="M304.8,278.4h-2.8v-14.6h2.8V278.4z"/>
	<path d="M316.7,278.6c-1.5,0-2.7-0.5-3.7-1.4c-0.9-0.9-1.4-2.2-1.4-3.7v-0.3c0-1,0.2-2,0.6-2.8c0.4-0.8,1-1.4,1.7-1.9
		c0.7-0.4,1.6-0.7,2.5-0.7c1.4,0,2.5,0.4,3.3,1.3c0.8,0.9,1.2,2.2,1.2,3.8v1.1h-6.6c0.1,0.7,0.4,1.2,0.8,1.6c0.4,0.4,1,0.6,1.7,0.6
		c1.1,0,1.9-0.4,2.5-1.2l1.4,1.5c-0.4,0.6-1,1-1.7,1.4S317.6,278.6,316.7,278.6z M316.4,270.1c-0.5,0-1,0.2-1.3,0.6
		s-0.6,0.9-0.7,1.6h3.8V272c0-0.6-0.2-1.1-0.5-1.4C317.4,270.3,317,270.1,316.4,270.1z"/>
	<path d="M150.4,301.8v-13.9h4.3c1.2,0,2.3,0.3,3.3,0.8c1,0.5,1.7,1.3,2.3,2.3c0.5,1,0.8,2.2,0.8,3.5v0.6c0,1.3-0.3,2.4-0.8,3.4
		c-0.5,1-1.3,1.8-2.2,2.3s-2.1,0.8-3.3,0.8H150.4z M153.2,290.2v9.3h1.4c1.1,0,2-0.4,2.6-1.1s0.9-1.8,0.9-3.1v-0.7
		c0-1.4-0.3-2.5-0.9-3.2s-1.4-1.1-2.6-1.1H153.2z"/>
	<path d="M167.6,302c-1.5,0-2.7-0.5-3.7-1.4c-0.9-0.9-1.4-2.2-1.4-3.7v-0.3c0-1,0.2-2,0.6-2.8c0.4-0.8,1-1.4,1.7-1.9
		c0.7-0.4,1.6-0.7,2.5-0.7c1.4,0,2.5,0.4,3.3,1.3s1.2,2.2,1.2,3.8v1.1h-6.6c0.1,0.7,0.4,1.2,0.8,1.6c0.4,0.4,1,0.6,1.7,0.6
		c1.1,0,1.9-0.4,2.5-1.2l1.4,1.5c-0.4,0.6-1,1-1.7,1.4C169.2,301.8,168.5,302,167.6,302z M167.3,293.5c-0.5,0-1,0.2-1.3,0.6
		s-0.6,0.9-0.7,1.6h3.8v-0.2c0-0.6-0.2-1.1-0.5-1.4C168.3,293.7,167.9,293.5,167.3,293.5z"/>
	<path d="M179,299c0-0.3-0.2-0.6-0.5-0.8c-0.3-0.2-0.9-0.4-1.6-0.5c-2.5-0.5-3.7-1.6-3.7-3.1c0-0.9,0.4-1.7,1.1-2.3
		c0.8-0.6,1.8-0.9,3-0.9c1.3,0,2.4,0.3,3.1,0.9s1.2,1.4,1.2,2.4h-2.8c0-0.4-0.1-0.7-0.4-1c-0.3-0.3-0.7-0.4-1.2-0.4
		c-0.5,0-0.8,0.1-1.1,0.3c-0.3,0.2-0.4,0.5-0.4,0.8c0,0.3,0.1,0.6,0.4,0.7s0.8,0.3,1.5,0.5c0.7,0.1,1.3,0.3,1.7,0.5
		c1.5,0.5,2.2,1.5,2.2,2.8c0,0.9-0.4,1.7-1.2,2.3c-0.8,0.6-1.8,0.9-3.1,0.9c-0.9,0-1.6-0.2-2.3-0.5c-0.7-0.3-1.2-0.7-1.6-1.3
		s-0.6-1.1-0.6-1.7h2.6c0,0.5,0.2,0.9,0.5,1.1c0.3,0.3,0.8,0.4,1.4,0.4c0.5,0,0.9-0.1,1.2-0.3S179,299.3,179,299z"/>
	<path d="M192.7,296.7c0,1.6-0.4,2.9-1.1,3.8s-1.7,1.4-2.9,1.4c-1,0-1.9-0.4-2.5-1.1v4.9h-2.8v-14.3h2.6l0.1,1
		c0.7-0.8,1.5-1.2,2.6-1.2c1.3,0,2.3,0.5,3,1.4s1.1,2.2,1.1,3.9V296.7z M190,296.5c0-1-0.2-1.7-0.5-2.2s-0.8-0.8-1.5-0.8
		c-0.9,0-1.5,0.3-1.8,1v4.2c0.3,0.7,0.9,1,1.8,1C189.3,299.8,190,298.7,190,296.5z"/>
	<path d="M194,296.6c0-1,0.2-1.9,0.6-2.7c0.4-0.8,1-1.4,1.7-1.9c0.7-0.4,1.6-0.7,2.6-0.7c1.4,0,2.5,0.4,3.4,1.3s1.4,2,1.5,3.5l0,0.7
		c0,1.6-0.4,2.9-1.3,3.8c-0.9,1-2.1,1.4-3.6,1.4c-1.5,0-2.7-0.5-3.6-1.4c-0.9-1-1.3-2.2-1.3-3.9V296.6z M196.7,296.7
		c0,1,0.2,1.7,0.6,2.2c0.4,0.5,0.9,0.8,1.6,0.8c0.7,0,1.2-0.3,1.6-0.8c0.4-0.5,0.6-1.3,0.6-2.5c0-1-0.2-1.7-0.6-2.2
		c-0.4-0.5-0.9-0.8-1.6-0.8c-0.7,0-1.2,0.3-1.6,0.8C196.9,294.8,196.7,295.6,196.7,296.7z"/>
	<path d="M211.3,294.1c-0.4-0.1-0.7-0.1-1-0.1c-1,0-1.7,0.4-2,1.1v6.7h-2.8v-10.3h2.6l0.1,1.2c0.6-0.9,1.3-1.4,2.3-1.4
		c0.3,0,0.6,0,0.9,0.1L211.3,294.1z"/>
	<path d="M216.4,289v2.5h1.8v2h-1.8v5.1c0,0.4,0.1,0.7,0.2,0.8c0.1,0.2,0.4,0.2,0.8,0.2c0.3,0,0.6,0,0.8-0.1v2.1
		c-0.5,0.2-1.1,0.2-1.7,0.2c-1.9,0-2.9-1-3-2.9v-5.6h-1.5v-2h1.5V289H216.4z"/>
	<path d="M219.6,288.8c0-0.4,0.1-0.8,0.4-1s0.7-0.4,1.1-0.4c0.5,0,0.8,0.1,1.1,0.4c0.3,0.3,0.4,0.6,0.4,1c0,0.4-0.1,0.8-0.4,1
		c-0.3,0.3-0.7,0.4-1.1,0.4s-0.8-0.1-1.1-0.4C219.8,289.6,219.6,289.2,219.6,288.8z M222.6,301.8h-2.8v-10.3h2.8V301.8z"/>
	<path d="M228.7,298.4l1.9-6.9h2.9l-3.5,10.3h-2.6l-3.5-10.3h2.9L228.7,298.4z"/>
	<path d="M234.1,296.6c0-1,0.2-1.9,0.6-2.7c0.4-0.8,1-1.4,1.7-1.9s1.6-0.7,2.6-0.7c1.4,0,2.5,0.4,3.4,1.3s1.4,2,1.5,3.5l0,0.7
		c0,1.6-0.4,2.9-1.3,3.8c-0.9,1-2.1,1.4-3.6,1.4s-2.7-0.5-3.6-1.4c-0.9-1-1.3-2.2-1.3-3.9V296.6z M236.9,296.7c0,1,0.2,1.7,0.6,2.2
		s0.9,0.8,1.6,0.8c0.7,0,1.2-0.3,1.6-0.8c0.4-0.5,0.6-1.3,0.6-2.5c0-1-0.2-1.7-0.6-2.2c-0.4-0.5-0.9-0.8-1.6-0.8
		c-0.7,0-1.2,0.3-1.6,0.8C237.1,294.8,236.9,295.6,236.9,296.7z"/>
	<path d="M253.5,296.9v4.9h-2.9v-13.9h5.4c1,0,2,0.2,2.7,0.6c0.8,0.4,1.4,0.9,1.8,1.6c0.4,0.7,0.6,1.5,0.6,2.4
		c0,1.4-0.5,2.4-1.4,3.2s-2.2,1.2-3.9,1.2H253.5z M253.5,294.6h2.6c0.8,0,1.3-0.2,1.7-0.5c0.4-0.4,0.6-0.9,0.6-1.5
		c0-0.7-0.2-1.2-0.6-1.6c-0.4-0.4-1-0.6-1.7-0.6h-2.6V294.6z"/>
	<path d="M267.6,302c-1.5,0-2.7-0.5-3.7-1.4c-0.9-0.9-1.4-2.2-1.4-3.7v-0.3c0-1,0.2-2,0.6-2.8c0.4-0.8,1-1.4,1.7-1.9
		c0.7-0.4,1.6-0.7,2.5-0.7c1.4,0,2.5,0.4,3.3,1.3c0.8,0.9,1.2,2.2,1.2,3.8v1.1h-6.6c0.1,0.7,0.4,1.2,0.8,1.6c0.4,0.4,1,0.6,1.7,0.6
		c1.1,0,1.9-0.4,2.5-1.2l1.4,1.5c-0.4,0.6-1,1-1.7,1.4S268.5,302,267.6,302z M267.3,293.5c-0.5,0-1,0.2-1.3,0.6s-0.6,0.9-0.7,1.6
		h3.8v-0.2c0-0.6-0.2-1.1-0.5-1.4C268.4,293.7,267.9,293.5,267.3,293.5z"/>
	<path d="M279,299c0-0.3-0.2-0.6-0.5-0.8c-0.3-0.2-0.9-0.4-1.6-0.5c-2.5-0.5-3.7-1.6-3.7-3.1c0-0.9,0.4-1.7,1.1-2.3
		c0.8-0.6,1.8-0.9,3-0.9c1.3,0,2.4,0.3,3.1,0.9s1.2,1.4,1.2,2.4h-2.8c0-0.4-0.1-0.7-0.4-1c-0.3-0.3-0.7-0.4-1.2-0.4
		c-0.5,0-0.8,0.1-1.1,0.3c-0.3,0.2-0.4,0.5-0.4,0.8c0,0.3,0.1,0.6,0.4,0.7s0.8,0.3,1.5,0.5c0.7,0.1,1.3,0.3,1.7,0.5
		c1.5,0.5,2.2,1.5,2.2,2.8c0,0.9-0.4,1.7-1.2,2.3c-0.8,0.6-1.8,0.9-3.1,0.9c-0.9,0-1.6-0.2-2.3-0.5c-0.7-0.3-1.2-0.7-1.6-1.3
		s-0.6-1.1-0.6-1.7h2.6c0,0.5,0.2,0.9,0.5,1.1c0.3,0.3,0.8,0.4,1.4,0.4c0.5,0,0.9-0.1,1.2-0.3C278.9,299.5,279,299.3,279,299z"/>
	<path d="M289.1,299c0-0.3-0.2-0.6-0.5-0.8c-0.3-0.2-0.9-0.4-1.6-0.5c-2.5-0.5-3.7-1.6-3.7-3.1c0-0.9,0.4-1.7,1.1-2.3
		c0.8-0.6,1.8-0.9,3-0.9c1.3,0,2.4,0.3,3.1,0.9s1.2,1.4,1.2,2.4H289c0-0.4-0.1-0.7-0.4-1c-0.3-0.3-0.7-0.4-1.2-0.4
		c-0.5,0-0.8,0.1-1.1,0.3c-0.3,0.2-0.4,0.5-0.4,0.8c0,0.3,0.1,0.6,0.4,0.7s0.8,0.3,1.5,0.5c0.7,0.1,1.3,0.3,1.7,0.5
		c1.5,0.5,2.2,1.5,2.2,2.8c0,0.9-0.4,1.7-1.2,2.3c-0.8,0.6-1.8,0.9-3.1,0.9c-0.9,0-1.6-0.2-2.3-0.5c-0.7-0.3-1.2-0.7-1.6-1.3
		s-0.6-1.1-0.6-1.7h2.6c0,0.5,0.2,0.9,0.5,1.1c0.3,0.3,0.8,0.4,1.4,0.4c0.5,0,0.9-0.1,1.2-0.3C288.9,299.5,289.1,299.3,289.1,299z"
		/>
	<path d="M293.1,296.6c0-1,0.2-1.9,0.6-2.7c0.4-0.8,1-1.4,1.7-1.9s1.6-0.7,2.6-0.7c1.4,0,2.5,0.4,3.4,1.3s1.4,2,1.5,3.5l0,0.7
		c0,1.6-0.4,2.9-1.3,3.8c-0.9,1-2.1,1.4-3.6,1.4s-2.7-0.5-3.6-1.4c-0.9-1-1.3-2.2-1.3-3.9V296.6z M295.8,296.7c0,1,0.2,1.7,0.6,2.2
		s0.9,0.8,1.6,0.8c0.7,0,1.2-0.3,1.6-0.8c0.4-0.5,0.6-1.3,0.6-2.5c0-1-0.2-1.7-0.6-2.2c-0.4-0.5-0.9-0.8-1.6-0.8
		c-0.7,0-1.2,0.3-1.6,0.8C296,294.8,295.8,295.6,295.8,296.7z"/>
	<path d="M310.5,301.8c-0.1-0.2-0.2-0.6-0.3-0.9c-0.7,0.7-1.5,1.1-2.6,1.1c-1,0-1.8-0.3-2.5-0.9c-0.7-0.6-1-1.3-1-2.2
		c0-1.1,0.4-1.9,1.2-2.5c0.8-0.6,2-0.9,3.5-0.9h1.3v-0.6c0-0.5-0.1-0.9-0.4-1.1c-0.2-0.3-0.6-0.4-1.2-0.4c-0.5,0-0.8,0.1-1.1,0.3
		c-0.3,0.2-0.4,0.5-0.4,0.9h-2.8c0-0.6,0.2-1.1,0.6-1.7c0.4-0.5,0.9-0.9,1.6-1.2s1.4-0.4,2.3-0.4c1.3,0,2.3,0.3,3,1
		c0.7,0.6,1.1,1.5,1.1,2.7v4.5c0,1,0.1,1.7,0.4,2.2v0.2H310.5z M308.3,299.9c0.4,0,0.8-0.1,1.1-0.3c0.3-0.2,0.6-0.4,0.8-0.7v-1.8h-1
		c-1.4,0-2.1,0.5-2.2,1.4l0,0.2c0,0.3,0.1,0.6,0.4,0.8C307.5,299.8,307.8,299.9,308.3,299.9z"/>
	<path d="M317.9,301.8h-2.8v-14.6h2.8V301.8z"/>
	<path d="M324.6,296.6c0-1.6,0.4-2.9,1.1-3.8c0.7-1,1.7-1.4,3-1.4c1,0,1.8,0.4,2.5,1.1v-5.3h2.8v14.6h-2.5l-0.1-1.1
		c-0.7,0.9-1.6,1.3-2.6,1.3c-1.2,0-2.2-0.5-2.9-1.4S324.6,298.3,324.6,296.6z M327.4,296.8c0,1,0.2,1.7,0.5,2.2
		c0.3,0.5,0.8,0.8,1.5,0.8c0.9,0,1.5-0.4,1.8-1.1v-4.1c-0.3-0.7-0.9-1.1-1.8-1.1C328,293.5,327.4,294.6,327.4,296.8z"/>
	<path d="M335.6,296.6c0-1,0.2-1.9,0.6-2.7c0.4-0.8,1-1.4,1.7-1.9s1.6-0.7,2.6-0.7c1.4,0,2.5,0.4,3.4,1.3s1.4,2,1.5,3.5l0,0.7
		c0,1.6-0.4,2.9-1.3,3.8c-0.9,1-2.1,1.4-3.6,1.4s-2.7-0.5-3.6-1.4c-0.9-1-1.3-2.2-1.3-3.9V296.6z M338.4,296.7c0,1,0.2,1.7,0.6,2.2
		s0.9,0.8,1.6,0.8c0.7,0,1.2-0.3,1.6-0.8c0.4-0.5,0.6-1.3,0.6-2.5c0-1-0.2-1.7-0.6-2.2c-0.4-0.5-0.9-0.8-1.6-0.8
		c-0.7,0-1.2,0.3-1.6,0.8C338.6,294.8,338.4,295.6,338.4,296.7z"/>
	<path d="M144.4,311.3l3.6,10.1l3.5-10.1h3.8v13.9h-2.9v-3.8l0.3-6.5l-3.7,10.3h-2l-3.7-10.3l0.3,6.5v3.8h-2.9v-13.9H144.4z"/>
	<path d="M163.8,324.2c-0.7,0.8-1.6,1.2-2.8,1.2c-1.1,0-1.9-0.3-2.5-1c-0.6-0.6-0.9-1.6-0.9-2.8v-6.8h2.8v6.7c0,1.1,0.5,1.6,1.5,1.6
		c0.9,0,1.6-0.3,1.9-1v-7.3h2.8v10.3h-2.6L163.8,324.2z"/>
	<path d="M171,314.9l0.1,1.2c0.7-0.9,1.7-1.4,3-1.4c1.1,0,1.9,0.3,2.4,1s0.8,1.6,0.8,2.9v6.7h-2.8v-6.6c0-0.6-0.1-1-0.4-1.3
		c-0.3-0.3-0.7-0.4-1.3-0.4c-0.8,0-1.4,0.3-1.7,1v7.3h-2.8v-10.3H171z"/>
	<path d="M179.4,312.2c0-0.4,0.1-0.8,0.4-1s0.7-0.4,1.1-0.4c0.5,0,0.8,0.1,1.1,0.4c0.3,0.3,0.4,0.6,0.4,1c0,0.4-0.1,0.8-0.4,1
		c-0.3,0.3-0.7,0.4-1.1,0.4s-0.8-0.1-1.1-0.4C179.6,313,179.4,312.7,179.4,312.2z M182.3,325.2h-2.8v-10.3h2.8V325.2z"/>
	<path d="M188.9,323.2c0.5,0,0.9-0.1,1.2-0.4c0.3-0.3,0.5-0.7,0.5-1.1h2.6c0,0.7-0.2,1.3-0.6,1.9c-0.4,0.6-0.9,1-1.5,1.4
		c-0.7,0.3-1.4,0.5-2.2,0.5c-1.5,0-2.6-0.5-3.5-1.4c-0.9-0.9-1.3-2.2-1.3-3.9v-0.2c0-1.6,0.4-2.9,1.3-3.8c0.8-0.9,2-1.4,3.5-1.4
		c1.3,0,2.3,0.4,3.1,1.1c0.8,0.7,1.2,1.7,1.2,2.9h-2.6c0-0.5-0.2-1-0.5-1.3c-0.3-0.3-0.7-0.5-1.3-0.5c-0.6,0-1.1,0.2-1.5,0.7
		c-0.3,0.5-0.5,1.2-0.5,2.3v0.3c0,1.1,0.2,1.8,0.5,2.3C187.7,323,188.2,323.2,188.9,323.2z"/>
	<path d="M197.8,325.2H195v-10.3h2.8V325.2z M196.9,310.7h3l-2.6,3h-2.2L196.9,310.7z"/>
	<path d="M209.4,320.2c0,1.6-0.4,2.9-1.1,3.8s-1.7,1.4-2.9,1.4c-1,0-1.9-0.4-2.5-1.1v4.9h-2.8v-14.3h2.6l0.1,1
		c0.7-0.8,1.5-1.2,2.6-1.2c1.3,0,2.3,0.5,3,1.4s1.1,2.2,1.1,3.9V320.2z M206.7,320c0-1-0.2-1.7-0.5-2.2s-0.8-0.8-1.5-0.8
		c-0.9,0-1.5,0.3-1.8,1v4.2c0.3,0.7,0.9,1,1.8,1C206,323.2,206.7,322.1,206.7,320z"/>
	<path d="M211.1,312.2c0-0.4,0.1-0.8,0.4-1s0.7-0.4,1.1-0.4c0.5,0,0.8,0.1,1.1,0.4c0.3,0.3,0.4,0.6,0.4,1c0,0.4-0.1,0.8-0.4,1
		c-0.3,0.3-0.7,0.4-1.1,0.4s-0.8-0.1-1.1-0.4C211.2,313,211.1,312.7,211.1,312.2z M214,325.2h-2.8v-10.3h2.8V325.2z"/>
	<path d="M215.9,320c0-1,0.2-1.9,0.6-2.7c0.4-0.8,1-1.4,1.7-1.9c0.7-0.4,1.6-0.7,2.6-0.7c1.4,0,2.5,0.4,3.4,1.3s1.4,2,1.5,3.5l0,0.7
		c0,1.6-0.4,2.9-1.3,3.8c-0.9,1-2.1,1.4-3.6,1.4c-1.5,0-2.7-0.5-3.6-1.4c-0.9-1-1.3-2.2-1.3-3.9V320z M218.6,320.2
		c0,1,0.2,1.7,0.6,2.2c0.4,0.5,0.9,0.8,1.6,0.8c0.7,0,1.2-0.3,1.6-0.8c0.4-0.5,0.6-1.3,0.6-2.5c0-1-0.2-1.7-0.6-2.2
		c-0.4-0.5-0.9-0.8-1.6-0.8c-0.7,0-1.2,0.3-1.6,0.8C218.8,318.3,218.6,319.1,218.6,320.2z"/>
	<path d="M231.8,320c0-1.6,0.4-2.9,1.1-3.8c0.7-1,1.7-1.4,3-1.4c1,0,1.8,0.4,2.5,1.1v-5.3h2.8v14.6h-2.5l-0.1-1.1
		c-0.7,0.9-1.6,1.3-2.7,1.3c-1.2,0-2.2-0.5-2.9-1.4S231.8,321.7,231.8,320z M234.5,320.2c0,1,0.2,1.7,0.5,2.2
		c0.3,0.5,0.8,0.8,1.5,0.8c0.9,0,1.5-0.4,1.8-1.1V318c-0.3-0.7-0.9-1.1-1.8-1.1C235.2,316.9,234.5,318,234.5,320.2z"/>
	<path d="M247.9,325.4c-1.5,0-2.7-0.5-3.7-1.4c-0.9-0.9-1.4-2.2-1.4-3.7V320c0-1,0.2-2,0.6-2.8c0.4-0.8,1-1.4,1.7-1.9
		c0.7-0.4,1.6-0.7,2.5-0.7c1.4,0,2.5,0.4,3.3,1.3c0.8,0.9,1.2,2.2,1.2,3.8v1.1h-6.6c0.1,0.7,0.4,1.2,0.8,1.6c0.4,0.4,1,0.6,1.7,0.6
		c1.1,0,1.9-0.4,2.5-1.2l1.4,1.5c-0.4,0.6-1,1-1.7,1.4S248.8,325.4,247.9,325.4z M247.6,316.9c-0.5,0-1,0.2-1.3,0.6
		s-0.6,0.9-0.7,1.6h3.8v-0.2c0-0.6-0.2-1.1-0.5-1.4C248.7,317.1,248.2,316.9,247.6,316.9z"/>
	<path d="M262.5,311.3l3.6,10.1l3.5-10.1h3.8v13.9h-2.9v-3.8l0.3-6.5l-3.7,10.3h-2l-3.7-10.3l0.3,6.5v3.8h-2.9v-13.9H262.5z"/>
	<path d="M281.7,325.2c-0.1-0.2-0.2-0.6-0.3-0.9c-0.7,0.7-1.5,1.1-2.6,1.1c-1,0-1.8-0.3-2.5-0.9c-0.7-0.6-1-1.3-1-2.2
		c0-1.1,0.4-1.9,1.2-2.5c0.8-0.6,2-0.9,3.5-0.9h1.3v-0.6c0-0.5-0.1-0.9-0.4-1.1c-0.2-0.3-0.6-0.4-1.2-0.4c-0.5,0-0.8,0.1-1.1,0.3
		c-0.3,0.2-0.4,0.5-0.4,0.9h-2.8c0-0.6,0.2-1.1,0.6-1.7c0.4-0.5,0.9-0.9,1.6-1.2s1.4-0.4,2.3-0.4c1.3,0,2.3,0.3,3,1
		c0.7,0.6,1.1,1.5,1.1,2.7v4.5c0,1,0.1,1.7,0.4,2.2v0.2H281.7z M279.4,323.3c0.4,0,0.8-0.1,1.1-0.3c0.3-0.2,0.6-0.4,0.8-0.7v-1.8h-1
		c-1.4,0-2.1,0.5-2.2,1.4l0,0.2c0,0.3,0.1,0.6,0.4,0.8C278.6,323.2,279,323.3,279.4,323.3z"/>
	<path d="M289.5,312.4v2.5h1.8v2h-1.8v5.1c0,0.4,0.1,0.7,0.2,0.8c0.1,0.2,0.4,0.2,0.8,0.2c0.3,0,0.6,0,0.8-0.1v2.1
		c-0.5,0.2-1.1,0.2-1.7,0.2c-1.9,0-2.9-1-3-2.9v-5.6h-1.5v-2h1.5v-2.5H289.5z"/>
	<path d="M292,320c0-1,0.2-1.9,0.6-2.7c0.4-0.8,1-1.4,1.7-1.9s1.6-0.7,2.6-0.7c1.4,0,2.5,0.4,3.4,1.3s1.4,2,1.5,3.5l0,0.7
		c0,1.6-0.4,2.9-1.3,3.8c-0.9,1-2.1,1.4-3.6,1.4s-2.7-0.5-3.6-1.4c-0.9-1-1.3-2.2-1.3-3.9V320z M294.8,320.2c0,1,0.2,1.7,0.6,2.2
		s0.9,0.8,1.6,0.8c0.7,0,1.2-0.3,1.6-0.8c0.4-0.5,0.6-1.3,0.6-2.5c0-1-0.2-1.7-0.6-2.2c-0.4-0.5-0.9-0.8-1.6-0.8
		c-0.7,0-1.2,0.3-1.6,0.8C295,318.3,294.8,319.1,294.8,320.2z"/>
	<path d="M309.1,322.4c0-0.3-0.2-0.6-0.5-0.8c-0.3-0.2-0.9-0.4-1.6-0.5c-2.5-0.5-3.7-1.6-3.7-3.1c0-0.9,0.4-1.7,1.1-2.3
		c0.8-0.6,1.8-0.9,3-0.9c1.3,0,2.4,0.3,3.1,0.9s1.2,1.4,1.2,2.4H309c0-0.4-0.1-0.7-0.4-1c-0.3-0.3-0.7-0.4-1.2-0.4
		c-0.5,0-0.8,0.1-1.1,0.3c-0.3,0.2-0.4,0.5-0.4,0.8c0,0.3,0.1,0.6,0.4,0.7s0.8,0.3,1.5,0.5c0.7,0.1,1.3,0.3,1.7,0.5
		c1.5,0.5,2.2,1.5,2.2,2.8c0,0.9-0.4,1.7-1.2,2.3c-0.8,0.6-1.8,0.9-3.1,0.9c-0.9,0-1.6-0.2-2.3-0.5c-0.7-0.3-1.2-0.7-1.6-1.3
		s-0.6-1.1-0.6-1.7h2.6c0,0.5,0.2,0.9,0.5,1.1c0.3,0.3,0.8,0.4,1.4,0.4c0.5,0,0.9-0.1,1.2-0.3C308.9,323,309.1,322.7,309.1,322.4z"
		/>
	<path d="M313.5,312.2c0-0.4,0.1-0.8,0.4-1s0.7-0.4,1.1-0.4c0.5,0,0.8,0.1,1.1,0.4s0.4,0.6,0.4,1c0,0.4-0.1,0.8-0.4,1
		c-0.3,0.3-0.7,0.4-1.1,0.4c-0.5,0-0.8-0.1-1.1-0.4C313.7,313,313.5,312.7,313.5,312.2z M316.4,325.2h-2.8v-10.3h2.8V325.2z"/>
	<path d="M321.2,314.9l0.1,1.2c0.7-0.9,1.7-1.4,3-1.4c1.1,0,1.9,0.3,2.4,1c0.5,0.6,0.8,1.6,0.8,2.9v6.7h-2.8v-6.6
		c0-0.6-0.1-1-0.4-1.3c-0.3-0.3-0.7-0.4-1.3-0.4c-0.8,0-1.4,0.3-1.7,1v7.3h-2.8v-10.3H321.2z"/>
	<path d="M332.3,316c0.7-0.9,1.6-1.3,2.8-1.3c2.2,0,3.4,1.3,3.4,3.9v6.6h-2.8v-6.5c0-0.6-0.1-1-0.4-1.3c-0.3-0.3-0.7-0.4-1.3-0.4
		c-0.8,0-1.4,0.3-1.8,0.9v7.3h-2.8v-14.6h2.8V316z"/>
	<path d="M340.1,320c0-1,0.2-1.9,0.6-2.7c0.4-0.8,1-1.4,1.7-1.9s1.6-0.7,2.6-0.7c1.4,0,2.5,0.4,3.4,1.3s1.4,2,1.5,3.5l0,0.7
		c0,1.6-0.4,2.9-1.3,3.8c-0.9,1-2.1,1.4-3.6,1.4s-2.7-0.5-3.6-1.4c-0.9-1-1.3-2.2-1.3-3.9V320z M342.9,320.2c0,1,0.2,1.7,0.6,2.2
		s0.9,0.8,1.6,0.8c0.7,0,1.2-0.3,1.6-0.8c0.4-0.5,0.6-1.3,0.6-2.5c0-1-0.2-1.7-0.6-2.2c-0.4-0.5-0.9-0.8-1.6-0.8
		c-0.7,0-1.2,0.3-1.6,0.8C343.1,318.3,342.9,319.1,342.9,320.2z"/>
	<path d="M357.2,322.4c0-0.3-0.2-0.6-0.5-0.8c-0.3-0.2-0.9-0.4-1.6-0.5c-2.5-0.5-3.7-1.6-3.7-3.1c0-0.9,0.4-1.7,1.1-2.3
		c0.8-0.6,1.8-0.9,3-0.9c1.3,0,2.4,0.3,3.1,0.9s1.2,1.4,1.2,2.4h-2.8c0-0.4-0.1-0.7-0.4-1c-0.3-0.3-0.7-0.4-1.2-0.4
		c-0.5,0-0.8,0.1-1.1,0.3c-0.3,0.2-0.4,0.5-0.4,0.8c0,0.3,0.1,0.6,0.4,0.7s0.8,0.3,1.5,0.5c0.7,0.1,1.3,0.3,1.7,0.5
		c1.5,0.5,2.2,1.5,2.2,2.8c0,0.9-0.4,1.7-1.2,2.3c-0.8,0.6-1.8,0.9-3.1,0.9c-0.9,0-1.6-0.2-2.3-0.5c-0.7-0.3-1.2-0.7-1.6-1.3
		s-0.6-1.1-0.6-1.7h2.6c0,0.5,0.2,0.9,0.5,1.1c0.3,0.3,0.8,0.4,1.4,0.4c0.5,0,0.9-0.1,1.2-0.3C357,323,357.2,322.7,357.2,322.4z"/>
</g>
</svg>
