<?xml version="1.0" encoding="utf-8"?>
<!-- Generator: Adobe Illustrator 21.0.0, SVG Export Plug-In . SVG Version: 6.00 Build 0)  -->
<svg version="1.1" id="Layer_1" xmlns="http://www.w3.org/2000/svg" xmlns:xlink="http://www.w3.org/1999/xlink" x="0px" y="0px" width="200" height="80"
	 viewBox="0 0 200 80" style="enable-background:new 0 0 200 80;" xml:space="preserve">
<style type="text/css">
	.st0{fill:#00ACC8;}
</style>
<g>
	<path class="st0" d="M45.1,21.9c0-2.9,0.1-5.8,0-8.6c-0.1-3.4-2.6-6.1-5.8-6.5c-3.7-0.4-6.7,1.5-7.6,5c-0.2,0.6-0.2,1.3-0.2,2
		c0,5.6,0,11.3,0,16.9c0,1.5-0.1,1.6-1.6,1.6c-5.6,0-11.2,0-16.8,0c-3.9,0-6.6,2.7-6.6,6.6c0,4,2.7,6.9,6.6,7c2.7,0,5.3,0,8,0
		c1.3,0,2.4,0.9,2.7,2.1c0.3,1.1-0.3,2.4-1.4,3c-0.5,0.2-1.1,0.3-1.7,0.3c-2.5,0-5.1,0-7.7,0c-5.2,0-9.9-3.3-11.4-8.4
		C-0.1,37,1.7,30.9,7.6,27.9c2-1,4.2-1.2,6.4-1.2c3.5,0,6.9,0,10.4,0c1.6,0,1.7-0.1,1.7-1.7c0-3.8,0-7.7,0-11.5
		c0.1-7.3,5.7-12.6,13-12.4c6.3,0.2,11.6,5.6,11.7,12c0,3.9,0,7.9,0,11.8c0,1.6,0.1,1.7,1.7,1.7c3.9,0,7.8,0,11.7,0.1
		c5.6,0.2,10.4,4.1,11.5,9.1c1.2,5.7-1.3,11.2-6.3,13.9c-1.8,0.9-3.7,1.4-5.7,1.4c-3.8,0-7.6,0-11.4,0c-1.2,0-1.6,0.4-1.6,1.6
		c0.1,2.1,0,4.2,0,6.3c0,1.8-1.2,3.2-2.7,3.2c-1.6,0-2.8-1.3-2.8-3.1c0-3.9,0-7.9,0-11.8c0-1.1,0.4-1.5,1.5-1.5c5.6,0,11.1,0,16.7,0
		c4.7,0,7.9-4,6.8-8.6c-0.6-2.9-3.3-4.9-6.6-4.9c-5.6,0-11.1,0-16.7,0c-1.7,0-1.8-0.1-1.8-1.8C45.1,27.5,45.1,24.7,45.1,21.9
		C45.1,21.9,45.1,21.9,45.1,21.9z"/>
	<path class="st0" d="M137.3,54.4c0.5-8.3,9.1-14.7,17.2-13.1c11.2,2.1,16.3,14.9,9.5,23.8c-5,6.6-13.7,7.7-19.7,3.8
		c-0.9-0.6-1.2-0.3-1.2,0.7c0,1.9,0,3.9,0,5.8c0,2-1.2,3.3-3,3.4c-1.8,0-3-1.3-3-3.3c0-3.3,0-6.7,0-10
		C137.1,65.5,137,58.1,137.3,54.4z M161,56.2c0-5.1-3.9-9-8.9-9c-5,0-9,3.8-9,8.7c0,5.3,3.7,9.3,8.9,9.3C157,65.1,161,61.2,161,56.2
		z"/>
	<path class="st0" d="M134.2,62c0,2.1,0,4.1,0,6.2c0,1.7-0.7,2.6-2.1,2.9c-1.8,0.4-3.1-0.2-3.7-1.7c-0.4-0.9-0.8-0.7-1.4-0.3
		c-8.3,4.9-18.8,1.1-21.9-8c-1.8-5.3-0.9-10.4,2.9-14.6c3.9-4.4,8.7-6.1,14.4-4.8c7.1,1.6,11.7,7.5,11.8,14.8
		C134.2,58.2,134.2,60.1,134.2,62z M128.2,56.2c0-5.1-3.8-9-8.9-9c-5.1,0-9,3.9-9,9c0,5.1,3.8,9,8.9,9
		C124.3,65.1,128.2,61.3,128.2,56.2z"/>
	<path class="st0" d="M198.9,61.8c0,2,0,4,0,6c0,1.9-0.6,2.8-2.1,3.2c-1.8,0.4-3-0.1-3.8-1.8c-0.4-0.9-0.8-0.5-1.3-0.2
		c-3.8,2.3-7.9,2.7-12.2,1.5c-7.4-2.2-12.1-10.6-10-18.1c1.7-6.1,6.9-10.6,12.9-11.1c6.4-0.6,12.3,2.6,15.1,8.5
		c0.9,2,1.2,4.2,1.5,6.4C199.1,58,198.9,59.9,198.9,61.8C198.9,61.8,198.9,61.8,198.9,61.8z M192.9,56.2c0.1-5.1-3.8-9-8.9-9.1
		c-5-0.1-8.9,3.8-9.1,8.8c-0.1,5,3.8,9.1,8.8,9.2C188.9,65.2,192.8,61.4,192.9,56.2z"/>
	<path class="st0" d="M83.6,47.6c0-3.9,0-7.7,0-11.6c0-1.9,1.1-3.3,2.7-3.3c1.7,0,2.9,1.3,2.9,3.3c0,7.2,0,14.4,0,21.6
		c0,1.2,0.1,2.5,0.5,3.6c0.9,2.8,3.4,4.5,6.4,4.6c2.1,0,4.1,0,6.2,0c0.5,0,1,0,1.5,0.1c1.2,0.3,2.2,1.5,2.3,2.6
		c0,1.2-0.9,2.7-2.2,2.8c-4,0.2-8.2,0.8-12.1-0.7c-4.8-1.8-8-6.5-8-11.7C83.6,55.2,83.6,51.4,83.6,47.6
		C83.6,47.6,83.6,47.6,83.6,47.6z"/>
	<path class="st0" d="M31.5,53.2c0,3.6,0,7.2,0,10.9c0,4.2,2.9,7,7,7c2,0,4,0,6,0c1.9,0,3.3,1.2,3.2,2.8c0,1.6-1.3,2.7-3.2,2.7
		c-2.1,0-4.3,0.1-6.4,0c-7.1-0.2-12.1-5.3-12.2-12.4c-0.1-7.4,0-14.9,0-22.3c0-1.9,1.2-3.3,2.8-3.3c1.6,0,2.7,1.4,2.7,3.3
		C31.5,45.8,31.5,49.5,31.5,53.2z"/>
	<path class="st0" d="M137.9,18c0.9-4.5,5.8-7.1,10.4-5.7c4.3,1.4,6.8,6.6,5,10.8c-1.8,4.4-7,6.4-11,4.4c-1.3-0.7-1.5-0.5-1.5,1
		c0,0.8,0,1.6,0,2.3c0,1-0.5,1.8-1.6,1.9c-0.8,0.1-1.7-0.8-1.7-1.9C137.5,28.9,137.5,20.3,137.9,18z M145.8,15.1
		c-2.8,0-4.9,2.1-4.9,4.9c0,2.8,2.2,5.1,5,5c2.7,0,4.9-2.3,4.9-5C150.7,17.2,148.6,15.1,145.8,15.1z"/>
	<path class="st0" d="M191.8,23.1c0,1.2,0.1,2.3,0,3.4c-0.1,0.6-0.6,1.3-1.1,1.6c-0.4,0.2-1.3-0.1-1.7-0.5c-0.6-0.6-1.1-0.6-1.8-0.2
		c-3.7,1.9-8.1,0.6-10.4-2.9c-2.3-3.6-1.5-8.1,1.9-10.8c3.2-2.6,7.7-2.3,10.7,0.6c1.7,1.7,2.5,3.6,2.5,6
		C191.8,21.2,191.8,22.1,191.8,23.1z M183.5,15.1c-2.8,0-4.9,2.1-4.9,5c0,2.7,2.2,5,4.9,5c2.8,0,4.9-2.3,4.9-5.1
		C188.5,17.2,186.4,15.1,183.5,15.1z"/>
	<path class="st0" d="M83.6,17.6c0-2.8,0-5.6,0-8.4c0-1.4,0.6-2.2,1.6-2.2c1,0,1.6,0.9,1.6,2.2c0,0.9,0,1.9,0,2.8
		c0,0.9,0.2,1.2,1.2,0.8c5.7-2.7,11.7,0.9,11.9,7.2c0.1,2.1,0,4.1,0,6.2c0,1.2-0.6,2-1.6,2c-0.9,0-1.7-0.8-1.7-2c0-2.1,0-4.2,0-6.3
		c0-2.8-2.1-4.8-5-4.8c-2.8,0-4.8,2-4.9,4.8c0,2.1,0,4.2,0,6.3c0,0.9-0.4,1.6-1.2,1.9c-1,0.4-2-0.4-2-1.8
		C83.6,23.4,83.6,20.5,83.6,17.6C83.6,17.6,83.6,17.6,83.6,17.6z"/>
	<path class="st0" d="M111.5,11.9c4.5,0,8.1,3.6,8.1,8.2c0,4.4-3.7,8.2-8.1,8.2c-4.4,0-8.2-3.8-8.2-8.2
		C103.4,15.6,107,11.9,111.5,11.9z M111.5,15.1c-2.8,0-4.9,2.2-4.9,4.9c0,2.7,2.3,5,5,5c2.7,0,4.9-2.3,4.9-5.1
		C116.4,17.2,114.3,15.1,111.5,15.1z"/>
	<path class="st0" d="M128.6,28.2c-3,0-5.6-2.4-5.8-5.2c-0.1-1,0.3-1.9,1.3-2c1-0.2,1.5,0.6,1.8,1.5c0.1,0.2,0.1,0.5,0.1,0.7
		c0.4,1.2,1.5,1.9,2.6,1.8c1.2-0.1,2.2-1.1,2.3-2.3c0.1-1.1-0.7-2.3-1.9-2.6c-0.5-0.1-1.1-0.2-1.6-0.3c-1.8-0.4-3.2-2.3-3.1-4.2
		c0.1-1.8,1.7-3.6,3.5-3.8c0.9-0.1,1.7,0.2,2,1.1c0.3,1-0.2,1.5-1.1,1.9c-0.5,0.2-1.5,0.3-1.2,1.1c0.2,0.5,1,0.8,1.6,0.9
		c2.9,0.6,4.9,2.9,4.9,5.6c0,2.8-2,5.1-4.8,5.7C129.1,28.2,128.8,28.2,128.6,28.2z"/>
	<path class="st0" d="M167.9,21.2c0-1.6,0-3.3,0-4.9c0-0.9-0.3-1.3-1.2-1.2c-0.2,0-0.5,0-0.7,0c-0.9-0.2-1.6-0.7-1.6-1.6
		c0-1,0.7-1.4,1.6-1.6c1.9-0.3,1.9-0.3,1.9-2.3c0-0.2,0-0.5,0-0.7c0.1-0.9,0.6-1.7,1.6-1.7c1,0,1.5,0.8,1.6,1.7c0.1,0.5,0,1.1,0,1.6
		c-0.1,1,0.2,1.5,1.3,1.4c0.1,0,0.2,0,0.4,0c1,0.1,1.9,0.8,1.8,1.7c-0.1,1-0.8,1.5-1.7,1.6c-1.7,0.2-1.7,0.2-1.7,2
		c0,2.9,0,5.8,0,8.8c0,0.2,0,0.5,0,0.7c-0.2,0.9-0.7,1.7-1.7,1.6c-1,0-1.5-0.8-1.6-1.8C167.9,24.7,167.9,23,167.9,21.2
		C167.9,21.2,167.9,21.2,167.9,21.2z"/>
	<path class="st0" d="M195.3,17.6c0-2.8,0-5.6,0-8.4c0-1.4,0.6-2.2,1.6-2.2c1,0,1.6,0.9,1.6,2.2c0,5.6,0,11.2,0,16.8
		c0,1.3-0.7,2.2-1.6,2.2c-0.9,0-1.6-0.9-1.6-2.3C195.3,23.2,195.3,20.4,195.3,17.6z"/>
	<path class="st0" d="M160.6,20.1c0,1.9,0,3.8,0,5.7c0,0.4,0,1-0.2,1.3c-0.3,0.5-0.9,1-1.3,1c-0.5,0-1.1-0.5-1.4-0.9
		c-0.2-0.3-0.3-0.9-0.3-1.3c0-4,0-8,0-11.9c0-0.2,0-0.3,0-0.5c0.1-1,0.7-1.7,1.7-1.7c0.9,0,1.5,0.7,1.5,1.7c0.1,1.4,0,2.8,0,4.2
		C160.6,18.5,160.6,19.3,160.6,20.1C160.6,20.1,160.6,20.1,160.6,20.1z"/>
	<path class="st0" d="M100.6,34.6c0.1,1.6-1,3.2-2.4,3.7c-1.4,0.5-2.9,0-3.8-1.2c-0.9-1.2-1-2.6-0.2-3.8c0.9-1.3,2.3-2,3.7-1.6
		c1,0.3,1.3,0.1,1.4-0.9c0-0.4,0-1.1,0.7-1.1c0.8,0,0.6,0.5,0.6,1.2c0,0.5,0,1.1,0,1.6C100.5,32.6,100.6,34,100.6,34.6z M97.2,37.2
		c1.2,0,2.1-1,2.1-2.1c0-1.1-1-2-2.1-2.1C96,33,95,34,95,35.1C95,36.3,96,37.2,97.2,37.2z"/>
	<path class="st0" d="M108,36.1c0,0.5,0,0.9,0,1.4c0,0.8-0.3,1.1-1.2,0.9c-0.4-0.1-0.8-0.1-1.2,0c-2.1,0.6-4-0.6-4.4-2.7
		c-0.3-1.8,1.1-3.8,3-4c2-0.2,3.7,1.4,3.8,3.5C108,35.5,108,35.8,108,36.1C108,36.1,108,36.1,108,36.1z M104.5,37.2
		c1.1,0,2.2-1,2.1-2.1c0-1.1-1.1-2.1-2.2-2.1c-1.1,0-2.1,1-2.1,2.1C102.4,36.3,103.4,37.2,104.5,37.2z"/>
	<path class="st0" d="M160.6,8.6c-0.1,0.8-0.9,1.6-1.7,1.5c-0.8-0.1-1.5-1-1.4-1.8c0.2-0.9,0.7-1.4,1.6-1.4
		C159.9,6.9,160.6,7.8,160.6,8.6z"/>
</g>
</svg>
