<?xml version="1.0" encoding="utf-8"?>
<!-- Generator: Adobe Illustrator 21.0.0, SVG Export Plug-In . SVG Version: 6.00 Build 0)  -->
<svg version="1.1" id="Layer_1" xmlns="http://www.w3.org/2000/svg" xmlns:xlink="http://www.w3.org/1999/xlink" x="0px" y="0px" width="200" height="200"
	 viewBox="0 0 200 200" style="enable-background:new 0 0 200 200;" xml:space="preserve">
<style type="text/css">
	.st0{fill:#696057;}
	.st1{opacity:0.8;fill:#FFFFFF;}
</style>
<path class="st1" d="M151.8,55.8c1.7,0,3.1-0.5,4.1-1.6c1.1-1.1,1.6-2.5,1.6-4.1V13.7c0-1.7-0.5-3.1-1.6-4.1
	c-1.1-1.1-2.5-1.6-4.1-1.6c-1.7,0-3.1,0.5-4.1,1.6c-1.1,1.1-1.6,2.5-1.6,4.1V50c0,1.7,0.5,3.1,1.6,4.1S150.1,55.8,151.8,55.8z
	 M48.1,55.8c1.6,0,2.9-0.5,4.1-1.6c1.2-1.1,1.8-2.5,1.8-4.1V13.7c0-1.7-0.6-3.1-1.8-4.1C51,8.5,49.6,8,48.1,8c-1.6,0-2.9,0.5-4,1.6
	c-1.1,1.1-1.6,2.5-1.6,4.1V50c0,1.7,0.5,3.1,1.6,4.1C45.2,55.3,46.5,55.8,48.1,55.8z M180.5,180.5h-161v-92h161V180.5z M191.3,40.3
	c-1.7-5.5-5.3-8.3-10.8-8.3H169v11.5V50c0,4.8-1.7,8.9-5,12.2c-3.4,3.4-7.4,5-12.2,5c-4.8,0-8.9-1.7-12.2-5s-5-7.4-5-12.2v-6.5V32.1
	h-69v11.5V50c0,4.8-1.7,8.9-5,12.2c-3.4,3.4-7.4,5-12.2,5c-4.8,0-8.9-1.7-12.2-5c-3.3-3.4-5-7.4-5-12.2v-6.5V32.1H19.5
	c-5.5,0-9.1,2.8-10.8,8.3H8v3.2v35.9v101c0,3.1,1.1,5.8,3.4,8.1c2.3,2.3,5,3.4,8.1,3.4h161c3.1,0,5.8-1.1,8.1-3.4
	c2.3-2.3,3.4-5,3.4-8.1v-101V43.6v-3.2H191.3z"/>
</svg>
