<?xml version="1.0" encoding="utf-8"?>
<!-- Generator: Adobe Illustrator 21.0.0, SVG Export Plug-In . SVG Version: 6.00 Build 0)  -->
<svg version="1.1" id="Layer_1" xmlns="http://www.w3.org/2000/svg" xmlns:xlink="http://www.w3.org/1999/xlink" x="0px" y="0px" width="200" height="200"
	 viewBox="0 0 200 200" style="enable-background:new 0 0 200 200;" xml:space="preserve">
<style type="text/css">
	.st0{opacity:0.7;fill:#FFFFFF;}
</style>
<path class="st0" d="M99.4,3.2h1.1c19.6,0,37.9,5.8,55,17.3c3.5,2.5,7.1,5.5,11,9.1c4.6,4.5,7.6,7.7,8.9,9.6
	c3.6,4.6,6.3,8.5,8.1,11.7c8.8,15.3,13.2,31.5,13.2,48.5v1.1c0,19.6-5.8,37.9-17.3,55c-2.4,3.5-5.5,7.1-9,11
	c-4.5,4.6-7.7,7.6-9.6,8.9c-4.6,3.6-8.5,6.3-11.7,8.1c-15.3,8.8-31.5,13.2-48.5,13.2h-1.1c-19.6,0-37.9-5.8-55-17.3
	c-3.5-2.5-7.1-5.5-11-9.1c-4.6-4.5-7.6-7.7-8.9-9.6c-3.6-4.6-6.3-8.5-8.1-11.7c-8.8-15.3-13.2-31.5-13.2-48.5v-1.1
	c0-19.6,5.8-37.9,17.3-55c2.5-3.5,5.5-7.1,9.1-11c4.5-4.6,7.7-7.6,9.6-8.9c4.6-3.6,8.5-6.3,11.7-8.1C66.2,7.6,82.4,3.2,99.4,3.2z
	 M109.6,35.3c0,0-1.9,0.7-5.8,2.2c-5.9,2.4-10.3,6.1-13.2,11.1c-2.9,5-4.4,10.8-4.4,17.4v18H65.8v23.6h20.5v60.8h24.4v-60.8h20.5
	c0.1-0.6,1.1-8.5,3-23.6h-0.1h-23.4V70.7c0-3.7,0.2-6,0.5-6.9c0-0.4,0.3-1.1,1-2.3c0.9-1.5,2.4-2.6,4.4-3.3c1.4-0.5,3.9-0.8,7.6-0.8
	H135v-0.1v-21c-5.7-0.6-11.6-1-17.7-1h-0.7C111.9,35.3,109.6,35.3,109.6,35.3z"/>
</svg>
