<?xml version="1.0" encoding="utf-8"?>
<!-- Generator: Adobe Illustrator 21.0.0, SVG Export Plug-In . SVG Version: 6.00 Build 0)  -->
<svg version="1.1" id="Layer_1" xmlns="http://www.w3.org/2000/svg" xmlns:xlink="http://www.w3.org/1999/xlink" x="0px" y="0px" width="200" height="200"
	 viewBox="0 0 200 200" style="enable-background:new 0 0 200 200;" xml:space="preserve">
<style type="text/css">
	.st0{fill:#696057;}
	.st1{opacity:0.8;fill:#FFFFFF;}
</style>
<path class="st0" d="M184.3,39.8v19.6L184,59l-84,58L15.7,59.3V39.8H184.3z M138,105.3l46.3-32v78.3L138,105.3z M15.7,151.6V74
	L62,105.7L15.7,151.6z M72.1,112.4l27.9,18.8l27.9-18.8l47.8,47.8H24.3L72.1,112.4z M184.3,27.7H15.7c-3.3,0-6.1,1.2-8.5,3.6
	c-2.4,2.4-3.6,5.2-3.6,8.5v120.5c0,3.3,1.2,6.1,3.6,8.5c2.4,2.4,5.2,3.6,8.5,3.6h168.7c3.3,0,6.1-1.2,8.5-3.6
	c2.4-2.4,3.6-5.2,3.6-8.5V39.8c0-3.3-1.2-6.1-3.6-8.5C190.4,28.9,187.6,27.7,184.3,27.7z"/>
</svg>
