<?xml version="1.0" encoding="utf-8"?>
<!-- Generator: Adobe Illustrator 21.0.0, SVG Export Plug-In . SVG Version: 6.00 Build 0)  -->
<svg version="1.1" id="Layer_1" xmlns="http://www.w3.org/2000/svg" xmlns:xlink="http://www.w3.org/1999/xlink" x="0px" y="0px" width="703" height="269"
	 viewBox="0 0 703 269" style="enable-background:new 0 0 703 269;" xml:space="preserve">
<style type="text/css">
	.st0{fill:#696057;}
</style>
<g id="Foreground">
	<g>
		<path class="st0" d="M162,150.2c0.8,0.7,1.9,1.8,2.3,2.9c2.4,6.4-5.2,7.5-5.2,12.7c0,4,2.4,7.8,1,11.9c-6.9,21.2-48,3.8-59.2-3.6
			c-9.3-6.2-17.2-14-23.8-23c-14.5-19.6-29-41.9-40.3-63.5c-6.2-11.9-1.3-26.5,13.4-27.2c5-0.2,9.7,0.8,14.6,1
			c12.3,0.7,30.3-31.1,40.8-7.9c14.7,32.4-8.7,106.7-30.1,62.1c24.7,38.6,37.1-36.3,26.2-60.4c-7.2-15.9-18-0.5-25.4,5.7
			C66.4,69,60.6,62.3,50,63.1c-10,0.7-16,11.1-11.6,20.2c10.6,22,26.4,45,40.9,64.7c14.5,19.6,41.4,43.8,68.3,35.4
			c4.4-1.4,11-4.9,9.8-10.5c-0.5-2.4-1.7-4.9-1.7-7.3c0.2-6.7,14.5-13.9-2.1-17.9c3.2,0.1,7.6,0.2,10.5-1.1
			c10.4-4.9-7.2-7.9,1.1-18.2c2.4-2.9,8.9-4.7,6.7-9.5c-3.8-8.3-12.8-14.6-17.6-22.7c-9.5-16.1,10.4-49.2-31.5-71.9
			c-44-24-112.6-4.6-110,53.8c2.5,56.8,52.3,133.2,84.4,179.8C59.7,212.5,10.6,136.6,8,78.4C5.3,15.7,77.3-3.3,124.2,21.7
			c21.2,11.3,31.1,27.5,30.2,51.6c-0.2,4.3-1.1,8.9-0.5,13.2c1.1,8.9,15,20.6,19.6,29.3c4.6,8.9-2.1,10.2-6.2,15.6
			c-4.3,5.5,9.4,7.8,1.4,16.2C166.9,149.3,164.3,150,162,150.2z"/>
		<g>
			<path class="st0" d="M246.8,79.8h-4.7c-2.2,4.9-6.7,8-12.1,8c-7.6,0-13.8-6.7-13.8-14.9c0-8.1,6.2-14.9,13.8-14.9
				c6,0,10.1,3.3,12.1,8h4.7c-2.3-7.3-8.5-12.3-16.9-12.3c-10.1,0-18.2,8.6-18.2,19.1c0,10.6,8.2,19.2,18.2,19.2
				C237.9,92.1,244.3,87.3,246.8,79.8z"/>
			<path class="st0" d="M249.7,81.5c0,6.9,4.4,10.7,10.8,10v-4.2c-3.4,0.2-6.4-1.1-6.4-5.9V52h-4.5L249.7,81.5L249.7,81.5z"/>
			<path class="st0" d="M274.2,53.3h-5.5l-4.6,7.2h3.5L274.2,53.3z M267.7,64.1h-4.5v27.3h4.5V64.1z"/>
			<path class="st0" d="M277.9,74.7c0-4.1,2.7-7.1,6.9-7.1c4.2,0,6.9,3,6.9,7.1v16.8h4.5V74.8c0-6.9-4.8-11.4-11.4-11.4
				c-6.5,0-11.4,4.5-11.4,11.4v16.6h4.5V74.7z"/>
			<path class="st0" d="M306.1,60v-3.4c0-1.2-1-2.2-2.3-2.2c-1.2,0-2.2,1-2.2,2.2V60H306.1z M306.1,64.1h-4.5v27.3h4.5V64.1z"/>
			<path class="st0" d="M336.4,83h-4.8c-1.5,3-4.3,4.8-7.9,4.8c-5,0-9.2-4.5-9.2-10s4.1-10.1,9.2-10.1c3.6,0,6.4,1.9,7.9,4.8h4.8
				c-1.9-5.5-6.6-9.1-12.7-9.1c-7.5,0-13.7,6.5-13.7,14.4s6.2,14.3,13.7,14.3C329.7,92.1,334.5,88.5,336.4,83z"/>
			<path class="st0" d="M365.2,77.8c0-8.1-5.9-14.4-13.7-14.4c-7.6,0-13.7,6.2-13.7,14.4s6.1,14.3,13.6,14.3c3.9,0,7.3-2,9.4-4.9
				v4.2h4.3V77.8H365.2z M360.8,77.8c0,5.6-4.2,10.1-9.2,10.1c-5.1,0-9.2-4.4-9.2-10.1s4.1-10.2,9.2-10.2
				C356.6,67.6,360.8,72.1,360.8,77.8z"/>
		</g>
		<g>
			<path class="st0" d="M215.3,165.9h15.3c13.5,0,22-9.3,22-24.4s-8.6-24.3-22-24.3h-15.3V165.9z M230.6,122.9
				c8.8,0,15.9,5.3,15.9,18.6c0,13.1-6.9,18.7-15.9,18.7h-9.4v-37.3C221.2,122.9,230.6,122.9,230.6,122.9z"/>
			<path class="st0" d="M257.4,144.4v21.5h5.9v-21.6c0-6.9,4.4-10.3,11.4-9.7V129C265.1,127.9,257.4,133.5,257.4,144.4z"/>
			<rect x="270.7" y="158.7" class="st0" width="7" height="7.2"/>
			<path class="st0" d="M333.3,117.2c-6.5-0.1-11.3,1.4-15.1,5.2c-4.1,4-6,9.6-6,19.1c0,9.6-2,13.1-5.1,15.8
				c-2.3,1.9-5.5,2.8-10.3,2.8v5.9c4.5,0.1,10-0.6,14.2-4.2c5.2-4.4,7.2-10,7.2-20.3c0-9.3,1.9-12.9,5.1-15.6
				c2.1-1.9,5.3-2.7,10.1-2.8v-5.9H333.3z"/>
			<path class="st0" d="M360.7,147.8c0-10.7-7.9-19-18.1-19c-10,0-18.2,8.1-18.2,19c0,10.8,8.1,18.9,18,18.9c5.1,0,9.7-2.6,12.5-6.5
				v5.6h5.8L360.7,147.8L360.7,147.8z M354.8,147.8c0,7.4-5.5,13.4-12.2,13.4s-12.2-5.8-12.2-13.4c0-7.6,5.5-13.5,12.2-13.5
				C349.2,134.3,354.8,140.3,354.8,147.8z"/>
			<path class="st0" d="M372.5,143.7c0-5.4,3.6-9.3,9.2-9.3c5.5,0,9.1,3.9,9.1,9.3v22.2h5.9v-22c0-9.1-6.4-15.1-15-15.1
				s-15.1,6-15.1,15.1v22h5.9V143.7z"/>
			<path class="st0" d="M416.7,160.4c-4.5,0.3-8.4-1.3-8.4-7.7v-17.3h8.2v-5.7h-8.2V122h-5.9v30.7c0,9.2,5.8,14.2,14.2,13.2
				L416.7,160.4L416.7,160.4z"/>
			<path class="st0" d="M454.4,147.8c0-10.7-7.9-19-18.1-19c-10,0-18.2,8.1-18.2,19c0,10.8,8.1,18.9,18,18.9c5.1,0,9.7-2.6,12.5-6.5
				v5.6h5.8L454.4,147.8L454.4,147.8z M448.5,147.8c0,7.4-5.5,13.4-12.2,13.4s-12.2-5.8-12.2-13.4c0-7.6,5.5-13.5,12.2-13.5
				C442.9,134.3,448.5,140.3,448.5,147.8z"/>
			<path class="st0" d="M522.6,150.4h-6.2c-2.9,6.5-8.9,10.5-16.1,10.5c-10,0-18.2-8.9-18.2-19.7s8.2-19.6,18.2-19.6
				c7.9,0,13.4,4.4,16.1,10.5h6.2c-3.1-9.6-11.2-16.2-22.3-16.2c-13.3,0-24.1,11.4-24.1,25.3c0,14,10.8,25.4,24.1,25.4
				C510.8,166.7,519.3,160.3,522.6,150.4z"/>
			<path class="st0" d="M543.1,128.8c-10.2,0-18.2,8.6-18.2,19.1c0,10.4,7.9,18.9,18.2,18.9s18.2-8.5,18.2-18.9
				C561.3,137.4,553.4,128.8,543.1,128.8z M543.1,161c-6.7,0-12.1-5.9-12.1-13.1c0-7.4,5.5-13.4,12.1-13.4c6.7,0,12.2,6,12.2,13.4
				C555.3,155.1,549.8,161,543.1,161z"/>
			<path class="st0" d="M615.2,142.7c0-7.9-5.6-13.9-13.8-13.9c-4.9,0-8.7,2.3-10.9,6c-2.1-3.6-5.9-6-10.8-6
				c-8.1,0-13.8,6-13.8,13.9v23.2h6v-23.4c0-4.7,3.1-8.2,7.9-8.2c4.8,0,7.9,3.5,7.9,8.2v23.4h6v-23.4c0-4.7,3.1-8.2,7.9-8.2
				c4.8,0,7.9,3.5,7.9,8.2v23.4h6v-23.2H615.2z"/>
			<path class="st0" d="M656.5,147.7c0-10.8-8-18.9-18-18.9c-5,0-9.5,2.4-12.5,6.1v-21.3h-5.8v34c0,10.7,7.9,19,18.2,19
				C648.3,166.7,656.5,158.6,656.5,147.7z M650.5,147.7c0,7.7-5.5,13.5-12.1,13.5s-12.2-6-12.2-13.5c0-7.4,5.5-13.4,12.2-13.4
				C645,134.3,650.5,140.2,650.5,147.7z"/>
			<path class="st0" d="M695,147.8c0-10.7-7.9-19-18.1-19c-10,0-18.2,8.1-18.2,19c0,10.8,8.1,18.9,18,18.9c5.1,0,9.7-2.6,12.5-6.5
				v5.6h5.8V147.8z M689.1,147.8c0,7.4-5.5,13.4-12.2,13.4s-12.2-5.8-12.2-13.4c0-7.6,5.5-13.5,12.2-13.5
				C683.5,134.3,689.1,140.3,689.1,147.8z"/>
		</g>
	</g>
</g>
</svg>
