<?xml version="1.0" encoding="utf-8"?>
<!-- Generator: Adobe Illustrator 21.0.0, SVG Export Plug-In . SVG Version: 6.00 Build 0)  -->
<svg version="1.1" id="Layer_1" xmlns="http://www.w3.org/2000/svg" xmlns:xlink="http://www.w3.org/1999/xlink" x="0px" y="0px" width="500" height="500"
	 viewBox="0 0 500 500" style="enable-background:new 0 0 500 500;" xml:space="preserve">
<style type="text/css">
	.st0{fill:#CD3529;}
	.st1{fill:#2A8B53;}
	.st2{fill:#2B8B4B;}
	.st3{fill:#2E975A;}
	.st4{fill:#9FA5AA;}
</style>
<g>
	<path class="st0" d="M214.5,230.2c0-6.2,2.6-8.1,2.6-10.8c0-2.7-2.9-7.4-2.9-11.9c0-4.5,1.4-6.2,1.4-9.1c0-2.9-2.4-4.5-2.4-11
		c0-6.4,1.9-4.3,1.9-10.5c0-6.2-4.5-5.5-1.4-15.3c0,0,3.4,0.7,7.2-0.2l0.2,0c-1.7-4.6-0.3-10.2-7.1-10.2c-7.2,0-6.9,11.5-10.3,14.8
		c-3.3,3.4-7.9,5-7.4,7.9c0.8,5,6.2,2.9,8.6,2.9c2.4,0,4.5-0.5,4.5,2.6c0,2.9-0.2,2.9-5.3,6c-5,3.1-10,6.9-10,11.2
		c0,6.7,2.9,9.3,2.9,14.4c0,5-1.7,7.2-7.9,12.5c-6.2,5.3-6,18.9-2.1,18.9s3.1-6.2,10-10.8c6-3.9,5.5-11.5,5.5-20.6s5.7-6.2,5.7-2.4
		s-3.6,10-5.7,20.3c-2.1,10.3-6,11.5-6,17.2s5.5,11.9,5.5,16.7c0,4.8-4.5,8.6-4.5,13.6c0,8.6,3.8,8.4,3.8,13.6
		c0,5.3-4.1,5.7-2.4,9.8c0.7,1.7,3.8,3.1,6.7-1.4c2.9-4.6,2.4-6.7,2.1-10.8s4.8-6.7,5-11.2c0.2-4.5-3.4-9.3-3.4-12.7
		s4.1-10,4.1-13.2c0-3.1-1-4.3-1-6.9c0-2.6-1.2-6.4,3.1-6.4c0.3,0,0.5,0,0.7,0v0C216.4,235,214.5,236.5,214.5,230.2L214.5,230.2z
		 M224.7,287c1,2.6-0.5,6,2.6,11c2.7,4.4,9.3,4.1,8.1,0.2c-1.2-3.8-4.3-6.2-4.3-10c0-0.3,0-0.6,0.1-0.9
		C228.9,287.5,226.5,287.6,224.7,287L224.7,287z M240.1,223.1c0,0.2,0,0.4,0,0.6c0,3.4,2.4,6.4,2.4,10c0,1.4-0.2,2.5-0.5,3.5
		c1.3,1.5,2.3,2.8,3.1,2.8c3.4,0,2.6-9.8-1.4-14.1C242.6,224.9,241.4,224,240.1,223.1L240.1,223.1z"/>
	<path class="st0" d="M231.9,173.8c0,2.9-4.8,3.4-7.2,3.4c-2.4,0-6.2,0-6.2,3.1s5,4.1,10,6.9c5,2.9,5.7,4.3,5.7,9.8
		s-2.9,6.9-2.9,15.8c0,5.6,4.6,7.8,8.7,10.4c0.4-2.9,3.3-4,3.3-8.2c0-4.5-3.1-7.7-3.1-11.9s2.4-6,2.4-10c0-4.1-2.4-5.7-2.4-9.1
		s2.1-3.4,2.1-7.2c0-3.8-2.4-6.4-2.4-9.1c0-2.6,0.5-6.9,0.5-6.9s-3.1,2.9-9.6,0.7c-3.6-1.2-6.1-1-9.9,0c0.1,0.3,0.2,0.5,0.3,0.8
		C224.3,168.3,231.9,170.9,231.9,173.8z"/>
	<path class="st0" d="M235.7,231.4c-4.8-2.6-8.1-6-8.1-16c0-10-1.4-11.7-4.1-11.7c-2.6,0-3.1,3.1-3.1,6c0,2.9,2.6,8.7,4.3,11.2
		c3.1,4.5,3.1,9.3,6.4,13.2c1.7,1.9,2.9,7.4,2.9,11.5c0,7.9-3.6,9.6-3.6,14.8s3.8,7.7,3.8,13.4c0,5.3-2.6,9.8-3.1,13.4
		c1.7-0.2,3.4-0.4,4.7-0.3c3.1,0.2,6.2,0,6.2,0s-1.2-4.3-1.2-6.9c0-2.6,1.7-3.1,1.7-6.2c0-3.1-2.6-4.5-2.6-9.3s3.8-7.9,3.8-12.7
		c0-4.8-2.9-5-2.9-9.1c0-2.5,0.5-3.9,0.9-5.4C240.4,235.4,238.4,232.9,235.7,231.4L235.7,231.4z M223.5,261.6
		c0-3.6-5.5-7.4-5.5-12.7c0-5,3.3-11.2-1.7-11.7c0,2.2-1.4,6.9-1.4,11.2s2.9,5,2.9,7.4s-2.1,4.5-2.6,8.9c-0.5,4.3,1.7,6.4,1.7,9.1
		c0,2.6-1.7,3.6-1.7,5.7c0,2.1,0.5,7.2,0.5,7.2c4.8-1.9,6-1,9.1,0.2c-1-2.6-3.8-8.1-3.8-13.2S223.5,265.2,223.5,261.6z"/>
	<path class="st1" d="M268.5,287.6c0.1,1.3-0.1,2.6-1,3.9c-2,3.1-4.3,4.1-2.4,6.9c1.9,2.9,3.1,1.2,7.2-3.4c3.8-4.3,1.7-4.7,2-8.8
		c-0.6,0.1-1.1,0.3-1.6,0.5C271.2,287.4,269.8,287.6,268.5,287.6L268.5,287.6z"/>
	<path class="st2" d="M254.1,225.3c-3.2,3.4-5,6-5,8.5c0.3,5.4,2.7,5.1,6,2.9c-0.8-2-1.8-4-1.8-6.4
		C253.3,228.2,253.7,226.8,254.1,225.3z"/>
	<path class="st3" d="M311.8,225.7c-5.5-7.4-10-9.8-10-16.7c0-6.9,3.6-10.3,3.6-19.1c0-8.9-7.4-11.2-11.9-12.5
		c-4.5-1.2-6.7-4.3-6.7-7.9s3.1-7.9,3.1-13.4c0-3.1-1.9-7.9-8.6-7.9c-6.7,0-9.1,5-9.1,7.4c0,2.2,0.1,3.9,0.2,5.2
		c1-0.4,2.1-0.7,3.3-0.7c4.2,0,7.4,0.8,7.4,0.8s1.3,3.8-0.8,6.8c-2.1,3-1.7,4-1.7,6.2c0,2.2,2.7,2.9,2.7,7.7c0,4.8-2.1,5.4-2.1,9.3
		s2.1,2.9,2.1,8.3c0,5.4-2.6,6.2-2.6,10.4c0,4.2,2.2,4.3,2.2,8c0,3.7-3,7.5-3,11.6c0,1.1,0.1,2,0.2,2.8c0.6-0.5,1.4-0.8,2.5-0.8
		c3.6,0,1.7,8.1,1.7,13.2c0,6.7,5,7.9,5,14.8c0,3.6-2.4,5.7-2.4,11.2s5.5,7.7,5.5,16.5c0,3.8-1,7.2,3.1,9.6c7.6,4.5,6.7-0.7,5-3.1
		c-1.7-2.4-3.4-4.8-3.4-7.7s5.3-11.5,5.3-15.3c0-3.8-5.5-6.9-5.5-13.6c0-4.8,4.3-7.9,4.3-15.8c0-5.3-5.7-10.3-6.7-12.7
		c-1-2.4,1.2-7.7-1.7-14.8c-2.3-5.8-4.3-17.2,0.7-17.2s3.8,7.2,3.4,17c-0.5,9.8,1.7,15.5,6.9,18.4c5.3,2.9,6.9,9.1,9.8,9.1
		C316.4,240.8,317.3,233.1,311.8,225.7L311.8,225.7z"/>
	<path class="st3" d="M260.1,205.6c-3.4-12.7-4.1-21.8,4.1-25.8c8.1-4.1,11.4-3.7,11.4-11.3c0-3.5-2.4-0.7-3.2-7.6
		c-2.5,1-4.7,2.7-7.9,2.7c-4.5,0-9.4-1.4-11.5-1.4c0,0-0.8,9.7,1.9,15.9c1.3,2.9-2.6,3.5-2.6,8.8c0,5.3,3,7.4,3,11.8
		c0,4.5-2.2,3.5-2.2,10.7c0,7.2,1.9,7.8,1.9,9.7c0,3-0.4,4.7-0.9,6.3c0.9-0.9,1.7-1.8,2.7-2.7C261.6,217.8,263.5,218.3,260.1,205.6
		L260.1,205.6z"/>
	<path class="st1" d="M278.6,238.9c0.7,4.3,2.4,7.7-1.2,14.1c-3.6,6.4-2.9,7.7-1.2,10.3c1.7,2.6,1.6,5,1.4,9.3
		c-0.2,6.4-2.4,8.1-3.1,12.9c0,0.3-0.1,0.5-0.1,0.8c3.6-0.8,7.8-0.5,7.8-0.5c2.2-2.2-2.1-11.3-2.1-15.3s2.9-6.4,2.9-10.7
		s-2.7-6.5-2.7-10.4s1.9-7.7,1.9-10.4c0-2.3-1.7-2.8-2.2-7.1C278.4,233.3,278.1,235.8,278.6,238.9L278.6,238.9z"/>
	<path class="st3" d="M267.1,258c0-5-4.3-8.6-4.3-16.5s4.8-11.2,6-16.5c1.2-5.3-1.4-6.4,0.5-12.5c1.9-6,2.9-14.4,0-14.4
		c-2.9,0-3.8,5.7-3.8,8.9c0,3.1,2.1,9,1.9,14.8c-0.2,6.9-5,9.3-9.6,12.9c-0.9,0.7-1.7,1.3-2.7,1.9c0.6,1.5,1.2,3.1,1.2,4.9
		c0,4.2-2.6,5.1-2.6,8.3c0,3.2,3.2,4.8,3.2,7.7c0,2.9-3,5.4-3,9.9c0,4.5,3,5.4,3,10.2c0,4.8-2.1,8-2.1,8s2.6-1,4.9-0.6
		c1.8,0.2,4.7,2.5,8.7,2.6c-0.4-4.6-5.3-9.5-5.3-15.2C263.3,264.9,267.1,263,267.1,258L267.1,258z"/>
	<path class="st4" d="M188,315.7h5.1l2.3,8.9h0l2.3-8.9h5.1V329h-3.2v-10.1h0l-2.8,10.1h-2.7l-2.8-10.1h0V329h-3.3L188,315.7
		L188,315.7z M206.8,315.7h3.5V329h-3.5V315.7z M214.1,315.7h3.6l4.6,8.2h0v-8.2h3.3V329H222l-4.6-8.3h0v8.3h-3.3L214.1,315.7
		L214.1,315.7z M229.5,315.7h3.5V329h-3.5V315.7z M239.6,324.6c0.1,1.6,1,2.1,2.5,2.1c1,0,2.1-0.4,2.1-1.4c0-1.2-1.9-1.4-3.8-1.9
		c-1.9-0.5-3.9-1.4-3.9-3.9c0-2.9,2.9-4.1,5.4-4.1c2.7,0,5.3,1.3,5.3,4.3h-3.5c0.1-1.2-1.1-1.6-2.1-1.6c-0.7,0-1.7,0.3-1.7,1.1
		c0,1,1.9,1.2,3.9,1.7c1.9,0.5,3.9,1.4,3.9,3.9c0,3.4-2.9,4.5-5.8,4.5c-3.1,0-5.8-1.3-5.8-4.8L239.6,324.6L239.6,324.6z
		 M261.3,318.7h-4V329h-3.5v-10.3h-4v-3h11.4L261.3,318.7L261.3,318.7z M272.8,312.1l-2.9,2.8h-2.2l1.8-2.8H272.8L272.8,312.1z
		 M264.4,315.7H275v2.8h-7.1v2.3h6.5v2.7h-6.5v2.6h7.4v3h-10.8V315.7L264.4,315.7z M278.6,315.7h6.8c2.3,0,4.7,1.1,4.7,3.8
		c0,1.4-0.7,2.8-2.1,3.4v0c1.4,0.3,1.8,1.9,1.9,3.2c0,0.6,0.1,2.5,0.6,3h-3.4c-0.3-0.4-0.4-1.7-0.4-2.1c-0.1-1.3-0.3-2.7-1.9-2.7
		h-2.6v4.9h-3.5L278.6,315.7L278.6,315.7L278.6,315.7z M282.1,321.5h2.9c1,0,1.6-0.6,1.6-1.6c0-1-0.8-1.4-1.7-1.4h-2.8L282.1,321.5
		L282.1,321.5z M293.6,315.7h3.5V329h-3.5V315.7z M307,315.5c4.2,0,6.6,3.1,6.6,6.9s-2.4,6.9-6.6,6.9c-4.2,0-6.6-3.1-6.6-6.9
		C300.5,318.5,302.8,315.5,307,315.5z M307,326.3c2.2,0,3.1-2,3.1-4c0-2-0.9-4-3.1-4c-2.2,0-3.1,2-3.1,4
		C303.9,324.3,304.8,326.3,307,326.3z M196.8,338.2h5.7c4.1,0,6.5,2.5,6.5,6.6c0,4.4-2.5,6.7-6.5,6.7h-5.7V338.2z M200.3,348.6h1.6
		c2.6-0.1,3.7-1.1,3.7-3.8c0-2.4-1.3-3.6-3.7-3.6h-1.6V348.6z M216.1,338.2h3.5l5,13.3h-3.6l-0.8-2.4h-4.6l-0.8,2.4h-3.6
		L216.1,338.2z M216.3,346.6h3l-1.5-4.7h0L216.3,346.6z M237.1,347c0.1,1.6,1,2.1,2.5,2.1c1,0,2.1-0.4,2.1-1.4
		c0-1.2-1.9-1.4-3.8-1.9c-1.9-0.5-3.9-1.4-3.9-3.9c0-2.9,2.9-4.1,5.4-4.1c2.7,0,5.3,1.3,5.3,4.3h-3.5c0.1-1.2-1.1-1.6-2.1-1.6
		c-0.7,0-1.7,0.3-1.7,1.1c0,1,1.9,1.2,3.9,1.7c1.9,0.5,3.9,1.4,3.9,3.8c0,3.4-2.9,4.5-5.8,4.5c-3.1,0-5.8-1.3-5.8-4.8L237.1,347
		L237.1,347z M252,338.2h3.5l5,13.3h-3.6l-0.8-2.4h-4.6l-0.8,2.4H247L252,338.2L252,338.2z M252.2,346.6h3l-1.5-4.7h0L252.2,346.6z
		 M272,334.6l-2.9,2.8h-2.2l1.8-2.8H272z M274.5,346c0,3.9-1.8,5.8-5.8,5.8s-5.8-1.9-5.8-5.8v-7.8h3.5v8c0,1.7,0.6,2.6,2.3,2.6
		s2.3-0.9,2.3-2.6v-8h3.5V346z M278.3,338.2h5.7c4.1,0,6.5,2.5,6.5,6.6c0,4.4-2.5,6.7-6.5,6.7h-5.7V338.2L278.3,338.2z M281.8,348.6
		h1.6c2.6-0.1,3.7-1.1,3.7-3.8c0-2.4-1.3-3.6-3.7-3.6h-1.6V348.6L281.8,348.6z M294,338.2h10.6v2.8h-7.1v2.3h6.5v2.7h-6.5v2.6h7.3v3
		H294V338.2z"/>
</g>
</svg>
