<?xml version="1.0" encoding="utf-8"?>
<!-- Generator: Adobe Illustrator 21.0.0, SVG Export Plug-In . SVG Version: 6.00 Build 0)  -->
<svg version="1.1" id="Layer_1" xmlns="http://www.w3.org/2000/svg" xmlns:xlink="http://www.w3.org/1999/xlink" x="0px" y="0px" width="200" height="200"
	 viewBox="0 0 200 200" style="enable-background:new 0 0 200 200;" xml:space="preserve">
<style type="text/css">
	.st0{fill:#65A6B8;}
</style>
<path class="st0" d="M190.4,61.8c-5.1-12-12-22.4-20.9-31.3c-8.9-8.9-19.3-15.9-31.3-20.9C126.2,4.5,113.5,2,100,2
	C86.5,2,73.8,4.5,61.8,9.6c-12,5.1-22.4,12-31.3,20.9c-8.9,8.9-15.9,19.3-20.9,31.3C4.5,73.8,2,86.5,2,100c0,13.5,2.5,26.2,7.6,38.2
	c5.1,11.9,12,22.4,20.9,31.3c8.9,8.9,19.3,15.9,31.3,20.9c12,5.1,24.7,7.6,38.2,7.6c13.5,0,26.2-2.5,38.2-7.6
	c12-5.1,22.4-12,31.3-20.9c8.9-8.9,15.9-19.3,20.9-31.3c5.1-12,7.6-24.7,7.6-38.2C198,86.5,195.5,73.8,190.4,61.8z M41.6,104.1v-8.3
	h117.5v8.3H41.6z"/>
</svg>
