<?xml version="1.0" encoding="utf-8"?>
<!-- Generator: Adobe Illustrator 21.0.0, SVG Export Plug-In . SVG Version: 6.00 Build 0)  -->
<svg version="1.1" id="Layer_1" xmlns="http://www.w3.org/2000/svg" xmlns:xlink="http://www.w3.org/1999/xlink" x="0px" y="0px" width="500" height="500"
	 viewBox="0 0 500 500" style="enable-background:new 0 0 500 500;" xml:space="preserve">
<style type="text/css">
	.st0{fill:#F9A619;}
	.st1{fill:#002558;}
</style>
<g>
	<path class="st0" d="M234.5,171.4c0-0.1-0.1-0.2-0.1-0.3c0.7-0.2,1.3-0.5,1.9-0.7c3.2-0.5,6.5-0.8,9.8-0.7
		c3.6,0.1,7.1,0.5,10.4,2.2c2.1,1.2,4.2,2.5,5.2,4.8c2,4.3,1.4,8.4-1.4,12.2c-2.1,2.9-4.9,5.2-7.6,7.4c-4.6,3.8-9.4,7.5-13.8,11.5
		c-6.4,5.8-11.6,12.4-15.2,20.2c-0.6,1.2-1.2,2.5-1.7,3.7c-0.1,0.3-0.4,0.5-0.5,0.7c-0.1-0.1-0.3-0.1-0.4-0.2c0.2-1,0.4-2,0.8-3
		c2-5.7,4.8-11,8.5-15.7c3.5-4.4,7.4-8.6,11.1-12.9c1.2-1.4,2.4-2.9,3.4-4.4c0.8-1.2,0.5-1.9-0.8-2.5c-1.1-0.6-1.8-1.5-2.1-2.7
		c-0.2-0.8-0.5-1.6-0.7-2.4c-0.9-2.7-6.1-4.4-9-3.1c-2.1,1-3.7,2.5-5,4.4c-5.4,7.8-8.9,16.4-10,26c-0.5,4.8-0.5,9.5,0.2,14.2
		c0.4,2.3,0.9,4.7,2.1,6.7c0.8,1.3,1.1,1.3,1.9,0.1c0.1-0.1,0.2-0.3,0.3-0.4c2.1-3.7,4.1-7.3,6.2-11c2-3.4,4.1-6.7,6.9-9.5
		c0.8-0.8,1.6-1.4,2.7-1.4c2.2-0.1,4.5-0.2,6.7,0.1c4.7,0.5,9.4,1.3,14.2,2c1.4,0.2,2.8,0.3,4.3,0.2c3.3-0.3,6.6,0.3,9.6,1.7
		c3.5,1.6,6.1,4.3,8.6,7.2c0.2,0.2,0.3,0.5,0.4,0.8c-0.1,0.1-0.1,0.1-0.2,0.2c-0.9-0.4-1.8-0.9-2.7-1.3c1.9,4.3,2.8,8.8,3.3,13.4
		s0.5,9.2,0.2,13.7c0.2,0.1,0.2,0.1,0.3,0.1c3.1,0,6.2,0.1,9.3,0c0.2,0,0.6-0.3,0.7-0.6c0.5-1.3,0.9-2.6,1.3-3.9
		c2.1-7.5,3.6-15.1,4.4-22.9c0.7-6.5,1-13,0.9-19.6c-0.1-7.9-0.7-15.7-1.9-23.5c-1-6.6-2.5-13-4.6-19.3c-0.2-0.7-0.4-0.9-1.2-0.9
		c-29.7,0-59.4,0-89.1,0c-0.3,0-0.5,0.1-0.9,0.1c0,0.4,0,0.8,0,1.2c0,29.4,0,58.8,0,88.2c0,0.2,0,0.4,0,0.7
		c-0.1,0.5,0.2,0.7,0.7,0.7c1.2,0,2.2,0,3.4,0c7.5,0,14.9,0,22.3,0c0.4,0,0.9-0.1,1.1-0.4c3.6-4.1,8.3-6.1,13.5-7.1
		c2.3-0.4,4.7-0.7,7-1.1c3.1-0.4,6.1-0.8,9.2-1.4c2.5-0.5,4.9-1,7.3-1.9c3.5-1.2,3.9-5.5,2.2-7.9c-0.2-0.3-0.5-0.4-0.7-0.7
		c-0.1,0.1-0.1,0.1-0.2,0.1c0.1,0.3,0.2,0.7,0.3,0.9c0.8,2.5,0.1,4.5-2.3,5.6c-1.2,0.5-2.5,0.9-3.7,1.1c-3.9,0.5-7.8,0.8-11.6,1.3
		c-3.9,0.5-7.9,0.9-11.8,1.5c-4.3,0.7-8.1,2.6-11.5,5.4c-1.3,1-2.4,2.2-3.6,3.3c-0.1,0-0.2-0.1-0.2-0.1c-0.2-0.2-0.4-0.3-0.5-0.5
		c-5.2-5-8.2-11.2-9.8-18c-1-4.2-1.3-8.5-1.2-12.8c0.1-4.1,0.6-8.2,1.5-12.1c1.3-5.3,3.3-10.4,5.8-15.2c4.4-8.3,10.8-14.7,19.1-19.2
		c1-0.5,2.1-1,3.1-1.5c0-0.1,0-0.1,0-0.2C238.5,171.6,236.5,171.5,234.5,171.4z"/>
	<path class="st1" d="M117.6,286.5c0.1,0.2,0.2,0.4,0.2,0.5c3.9,11.2,7.9,22.3,11.9,33.5c0.6,1.7,0.9,1.9,2.7,1.6
		c0.3-0.1,0.5-0.1,0.8-0.2c1.7-0.2,2.8-1.1,3.5-2.7c3.7-9.8,7.5-19.5,11.2-29.3c0.5-1.3,1-2.5,1.5-3.8c0.4,1.8,0.8,3.6,1,5.4
		c0.5,3.1,0.9,6.3,1.4,9.4c0.5,3.7,1.1,7.3,1.6,11c0.4,2.9,0.9,5.9,1.4,8.8c0.2,1,0.8,1.7,1.7,1.8c2.2,0.1,4.4-0.1,6.5-0.8
		c0-0.2,0-0.3-0.1-0.5c-0.8-4.1-1.6-8.2-2.4-12.2c-0.7-3.7-1.3-7.5-2-11.2c-0.5-2.9-1-5.8-1.5-8.7c-0.5-3.1-1-6.3-1.6-9.4
		c-0.3-1.7-0.6-3.3-0.9-5c-0.2-0.8-0.7-1.5-1.6-1.4c-1.9,0.1-3.7,0.2-5.5,0.9c-0.4,0.2-0.5,0.4-0.5,0.9c0,0.5,0,1.2-0.2,1.7
		c-3.5,8.2-6.9,16.5-10.4,24.7c-1,2.4-1.9,4.7-3,7.1c-0.1-0.3-0.2-0.4-0.2-0.6c-3.6-9.6-7.3-19.2-11-28.7c-0.7-1.8-1.6-3.5-2.5-5.2
		c-0.3-0.7-0.8-0.9-1.5-0.8c-0.9,0.2-1.9,0.2-2.8,0.3c-1,0.2-2.1,0.5-3.1,0.7c0.2,1,0.7,2,0.5,2.9c-0.8,4.3-1.6,8.7-2.5,13
		c-0.8,4.2-1.6,8.3-2.4,12.6c-0.8,3.9-1.5,7.8-2.2,11.7c-0.5,2.4-0.9,4.8-1.4,7.3c0.3,0.2,0.6,0.3,0.9,0.4c1.5,0.7,3,0.5,4.5,0.5
		c1.3,0,1.9-0.4,2.1-1.7c0.4-2.1,0.7-4.3,1.1-6.4c0.6-3.5,1.2-6.9,1.8-10.3c0.5-3.3,1.1-6.5,1.6-9.8
		C116.7,291.7,117.1,289.2,117.6,286.5z"/>
	<path class="st1" d="M206.1,322.6c1.9-0.1,3.6-0.2,5.4-0.3c2-0.1,2.6-0.7,2.6-2.7c0-6.9,0-13.7,0-20.6c0-0.3,0-0.7,0.2-0.9
		c2.2-2.9,4.9-5,8.8-4.8c1.9,0.2,3.5,1,4.2,2.7c0.5,1.3,0.9,2.7,0.9,4.1c0.1,3.5-0.1,6.9-0.1,10.3c0,3.4-0.1,6.9,0,10.2
		c0,1,0.6,1.6,1.4,1.7c2.2,0.1,4.5-0.3,6.7-0.7c0-0.2,0-0.3,0-0.4c-0.2-2.7-0.4-5.5-0.4-8.3c-0.1-4.4,0-8.8-0.1-13.2
		c0-1.5-0.2-3-0.5-4.5c-0.5-2.3-1.5-4.3-3.2-6c-2.1-1.9-4.7-2.6-7.5-2.7c-3.5-0.2-6.4,1-9,3.2c-0.7,0.5-1.3,1.1-1.9,1.6
		c-0.4-0.9-0.7-1.9-1.2-2.7c-0.7-1.2-1.7-1.9-3.2-1.9c-2,0-3.3,1.3-4.5,2.7c-0.4,0.4-0.2,1.9,0.2,2.1c0.9,0.6,1.3,1.4,1.3,2.5
		c0,8.3,0,16.7,0,25C206.3,320.5,206.2,321.5,206.1,322.6z"/>
	<path class="st1" d="M246.3,293.8c0,0.3,0,0.5,0,0.8c0,5.8,0,11.6,0,17.3c0,1.2,0.1,2.5,0.3,3.7c0.5,2.5,1.6,4.7,3.9,6
		c4.1,2.2,8.2,1.9,12.3-0.1c2.2-1.1,2.8-3.1,2.6-5.4c-0.1-0.4-0.5-0.9-0.9-1.2c-0.1-0.1-0.6,0.2-0.8,0.3c-1.6,1-3.5,1.5-5.4,1.5
		c-2-0.1-3.4-1.1-3.8-3.1c-0.3-1.1-0.4-2.2-0.4-3.4c-0.1-4.5-0.1-9.1,0-13.6c0-1,0.1-1.9,0.2-2.8c2.5-0.1,4.9-0.2,7.3-0.4
		c2.9-0.2,5-2.7,4.7-5.7c-3.9,0-7.9,0-12,0c0.1-2,0.2-3.8,0.3-5.8c-1.6,0.3-3.1,0.7-4.4,1.7c-0.7,0.6-1.4,1.2-2.1,1.9
		c-1.6,1.7-3.3,3.4-4.8,5.2c-0.9,1-0.5,2.1,0.8,2.6C244.7,293.5,245.5,293.6,246.3,293.8z"/>
	<path class="st1" d="M344.1,288.1c0.5,11.6,0.3,23,0.1,34.4c0.9,0,1.8,0.1,2.6,0c1.3-0.1,2.5-0.3,3.8-0.4c0.8-0.1,1.3-0.7,1.4-1.4
		c0.1-0.5,0.2-1,0.2-1.4c0-9,0-18,0-27.1c0-0.9-0.1-1.8-0.1-2.7c-0.2-1.8-0.8-2.4-2.6-2.2c-0.4,0.1-0.8,0.1-1.2,0.1
		C346.8,287.6,345.4,287.8,344.1,288.1z"/>
	<path class="st0" d="M263.3,232.2c0.9-0.2,1.6-0.2,2.2-0.4c1-0.3,1.5-1,1.2-2c-0.2-0.7-0.6-1.3-1-1.9c-0.7-0.8-1.5-1.5-2.1-2.3
		c-0.4-0.5-0.9-1.3-1-1.9c-0.2-1.5-0.9-2.2-2.2-2.6c-3.7-0.9-7.4-1.9-11.1-2.7c-2.9-0.7-5.8-1.3-8.6-2c-1.3-0.3-2.5-0.7-3.8-0.9
		c-0.9-0.2-1.3,0.2-1,1c0.2,0.7,0.4,1.5,0.9,2c1.4,1.6,2.7,3.2,4.4,4.5c4.8,3.9,10.1,6.8,16.2,8.2
		C259.3,231.6,261.4,231.8,263.3,232.2z"/>
	<path class="st1" d="M348.3,270.7c-2.6,0-4.4,1.9-4.4,4.5c0,2.5,1.6,4.2,4.2,4.3c2.4,0.1,4.3-2,4.3-4.5S350.6,270.5,348.3,270.7z"
		/>
	<path class="st0" d="M245.6,192.1c0.1,0.3,0.3,0.6,0.4,0.9c0.3-0.2,0.7-0.2,0.9-0.5c1.3-1.3,2.1-2.8,2.6-4.5
		c0.1-0.3,0.1-0.8,0.1-1.2c-0.1-0.9-0.9-1.4-1.6-1c-0.5,0.3-1.1,0.8-1.3,1.3C246.3,188.8,246,190.3,245.6,192.1z"/>
	<path class="st0" d="M266,220.5c-0.8,0.3-1.8,0.5-2.6,0.9c-0.2,0.1-0.3,0.4-0.3,0.5s0.3,0.3,0.5,0.3c1.5,0.1,2.8,0.6,4.1,1.1
		c0.3,0.1,0.9,0.1,1-0.1c0.3-0.3,0.4-0.8,0.3-1.2c-0.1-0.4-0.5-0.8-0.8-1C267.6,220.8,266.9,220.8,266,220.5z"/>
	<path class="st0" d="M234.5,171.4c2,0.1,3.9,0.2,5.9,0.3c0,0.1,0,0.1,0,0.2c-1,0.5-2.1,1-3.1,1.5c-8.3,4.5-14.6,10.9-19.1,19.2
		c-2.6,4.8-4.5,9.9-5.8,15.2c-0.9,4-1.4,8.1-1.5,12.1c-0.2,4.3,0.1,8.5,1.2,12.8c1.6,6.9,4.6,13,9.8,18c0.2,0.2,0.4,0.3,0.5,0.5
		c0.1,0.1,0.2,0.1,0.2,0.1c1.2-1.2,2.4-2.3,3.6-3.3c3.3-2.7,7.2-4.7,11.5-5.4c3.9-0.7,7.9-1.1,11.8-1.5c3.9-0.4,7.8-0.8,11.6-1.3
		c1.3-0.2,2.6-0.5,3.7-1.1c2.4-1.1,3.1-3.1,2.3-5.6c-0.1-0.3-0.2-0.6-0.3-0.9c0.1-0.1,0.1-0.1,0.2-0.1c0.2,0.2,0.5,0.4,0.7,0.7
		c1.7,2.4,1.3,6.7-2.2,7.9c-2.4,0.8-4.8,1.4-7.3,1.9c-3.1,0.6-6.1,1-9.2,1.4c-2.4,0.3-4.7,0.6-7,1.1c-5.2,1-9.9,3-13.5,7.1
		c-0.2,0.3-0.7,0.4-1.1,0.4c-7.5,0-14.9,0-22.3,0c-1.2,0-2.2,0-3.4,0c-0.5,0-0.7-0.2-0.7-0.7c0-0.2,0-0.4,0-0.7
		c0-29.4,0-58.8,0-88.2c0-0.3,0-0.7,0-1.2c0.3,0,0.6-0.1,0.9-0.1c29.7,0,59.4,0,89.1,0c0.8,0,1,0.3,1.2,0.9
		c2.1,6.3,3.6,12.8,4.6,19.3c1.2,7.8,1.8,15.6,1.9,23.5c0.1,6.6-0.2,13.1-0.9,19.6c-0.8,7.7-2.2,15.4-4.4,22.9
		c-0.4,1.3-0.8,2.6-1.3,3.9c-0.1,0.3-0.4,0.6-0.7,0.6c-3.1,0.1-6.2,0-9.3,0c-0.1,0-0.1-0.1-0.3-0.1c0.3-4.5,0.3-9.2-0.2-13.7
		c-0.5-4.6-1.4-9-3.3-13.4c0.9,0.4,1.8,0.9,2.7,1.3c0.1-0.1,0.1-0.1,0.2-0.2c-0.2-0.3-0.3-0.6-0.4-0.8c-2.5-2.9-5.2-5.5-8.6-7.2
		c-3-1.5-6.3-2-9.6-1.7c-1.5,0.1-2.9,0.1-4.3-0.2c-4.7-0.7-9.4-1.5-14.2-2c-2.2-0.3-4.5-0.1-6.7-0.1c-1.1,0-2,0.6-2.7,1.4
		c-2.8,2.8-4.9,6.1-6.9,9.5c-2.1,3.6-4.2,7.3-6.2,11c-0.1,0.1-0.2,0.3-0.3,0.4c-0.8,1.2-1.2,1.2-1.9-0.1c-1.2-2.1-1.7-4.4-2.1-6.7
		c-0.8-4.7-0.8-9.5-0.2-14.2c1.1-9.5,4.6-18.1,10-26c1.3-1.9,2.9-3.5,5-4.4c2.8-1.3,8.1,0.4,9,3.1c0.3,0.8,0.5,1.6,0.7,2.4
		c0.3,1.2,1,2.1,2.1,2.7c1.3,0.7,1.5,1.3,0.8,2.5c-1,1.5-2.2,3-3.4,4.4c-3.7,4.3-7.6,8.5-11.1,12.9c-3.7,4.7-6.6,10-8.5,15.7
		c-0.3,1-0.5,2-0.8,3c0.1,0.1,0.3,0.1,0.4,0.2c0.2-0.2,0.4-0.4,0.5-0.7c0.6-1.2,1.2-2.5,1.7-3.7c3.7-7.8,8.9-14.5,15.2-20.2
		c4.4-4,9.2-7.7,13.8-11.5c2.7-2.2,5.5-4.5,7.6-7.4c2.8-3.8,3.4-7.9,1.4-12.2c-1.1-2.3-3.1-3.6-5.2-4.8c-3.2-1.7-6.7-2.1-10.4-2.2
		c-3.3-0.1-6.6,0.1-9.8,0.7c-0.7,0.1-1.3,0.4-1.9,0.7C234.5,171.2,234.5,171.3,234.5,171.4z"/>
	<path class="st1" d="M117.6,286.5c-0.4,2.7-0.8,5.3-1.3,7.8c-0.5,3.3-1.1,6.5-1.6,9.8c-0.6,3.5-1.2,6.9-1.8,10.3
		c-0.4,2.1-0.7,4.3-1.1,6.4c-0.2,1.3-0.8,1.7-2.1,1.7c-1.5,0-3.1,0.1-4.5-0.5c-0.3-0.1-0.5-0.3-0.9-0.4c0.5-2.4,0.9-4.9,1.4-7.3
		c0.8-3.9,1.5-7.8,2.2-11.7c0.8-4.2,1.6-8.3,2.4-12.6c0.8-4.3,1.8-8.6,2.5-13c0.2-0.9-0.3-1.8-0.5-2.9c1-0.2,2.1-0.5,3.1-0.7
		c0.9-0.2,1.9-0.2,2.8-0.3c0.7-0.1,1.2,0.1,1.5,0.8c0.8,1.8,1.8,3.4,2.5,5.2c3.7,9.5,7.3,19.1,11,28.7c0.1,0.2,0.1,0.3,0.2,0.6
		c1-2.4,2-4.8,3-7.1c3.5-8.2,6.9-16.4,10.4-24.7c0.2-0.5,0.2-1.2,0.2-1.7c0-0.4,0.1-0.7,0.5-0.9c1.8-0.7,3.6-0.8,5.5-0.9
		c0.9,0,1.5,0.6,1.6,1.4c0.4,1.6,0.7,3.3,0.9,5c0.5,3.1,1,6.3,1.6,9.4c0.5,2.9,1,5.8,1.5,8.7c0.7,3.7,1.3,7.5,2,11.2
		c0.8,4.1,1.6,8.2,2.4,12.2c0.1,0.2,0,0.3,0.1,0.5c-2.1,0.7-4.3,1-6.5,0.8c-0.8-0.1-1.5-0.8-1.7-1.8c-0.5-2.9-0.9-5.8-1.4-8.8
		c-0.5-3.7-1.1-7.3-1.6-11c-0.5-3.1-0.9-6.3-1.4-9.4c-0.3-1.8-0.5-3.6-1-5.4c-0.5,1.3-1,2.5-1.5,3.8c-3.7,9.8-7.5,19.5-11.2,29.3
		c-0.7,1.6-1.8,2.5-3.5,2.7c-0.3,0.1-0.5,0.1-0.8,0.2c-1.8,0.3-2.1,0.1-2.7-1.6c-3.9-11.2-7.9-22.4-11.9-33.5
		C117.8,286.9,117.7,286.7,117.6,286.5z"/>
	<path class="st1" d="M311.7,321.7c0,4.5,0,8.9,0,13.3c0,2-0.6,2.7-2.6,2.9c-1.7,0.2-3.4,0.2-5.2,0.4c0-0.6,0-1.2,0-1.6
		c0.1-2.4,0.2-4.7,0.2-7c0-11.6,0-23.3,0-34.9c0-0.5-0.1-1.1-0.2-1.6c-0.1-0.4-0.4-0.8-0.7-1c-0.5-0.4-0.9-0.6-0.8-1.4
		c0.1-0.6,0.1-1.2,0.5-1.6c0.9-0.9,1.6-2,3-2.3c1.9-0.4,3.7,0.4,4.7,2.2c0.4,0.7,0.6,1.4,0.9,2c1.5-0.9,3-2,4.6-2.8
		c7.7-3.9,17-0.4,20,8.2c2.3,6.6,1.8,13-2.2,18.9c-2.9,4.3-7.1,6.7-12.3,7.4c-3.2,0.4-6.3,0.1-9.3-1.1
		C312,321.7,311.9,321.7,311.7,321.7z M311.7,306.3c0,2.7,0,5.5,0,8.2c0,0.3,0.2,0.7,0.5,0.9c1.8,1.1,3.7,1.8,5.7,1.8
		c3.9,0.2,6.9-1.6,9-4.8c1.4-2.1,1.9-4.4,2.1-6.9c0.2-2.9-0.1-5.5-1.5-8.1c-1.9-3.3-5.1-4.8-8.8-4.1c-2.6,0.6-4.8,2-6.8,3.8
		c-0.2,0.2-0.2,0.5-0.2,0.8C311.7,300.9,311.7,303.6,311.7,306.3z"/>
	<path class="st1" d="M183.2,323.1c-4.1-0.1-7.8-1.1-11.1-3.7c-3.5-2.7-5.4-6.3-6.2-10.5c-0.8-4.2-0.4-8.3,1.5-12.1
		c2.6-5.4,7-8.8,13-9.8c5.3-0.9,10.2,0.2,14.5,3.7c3,2.5,4.8,5.8,5.5,9.5c1,5.2,0.5,10.1-2.2,14.7c-2.5,4.3-6.4,6.8-11.2,7.7
		C185.6,322.9,184.4,323,183.2,323.1z M192.7,305.1c-0.1-0.8-0.1-1.7-0.2-2.5c-0.2-2.2-0.9-4.3-2.2-6.2c-2.1-2.9-4.9-4.2-8.4-3.7
		c-3.4,0.5-5.7,2.7-7.1,5.9c-1.2,2.7-1.3,5.6-0.9,8.5c0.3,2.4,1,4.6,2.4,6.5c3.8,5.2,11.1,5,14.5-0.4
		C192.2,310.7,192.6,308,192.7,305.1z"/>
	<path class="st1" d="M395.8,304.7c-0.2,5.4-1.8,10.1-5.7,13.8c-2.7,2.5-5.9,3.9-9.5,4.3c-4.2,0.5-8.3-0.1-11.9-2.3
		c-4.4-2.6-6.9-6.6-7.8-11.5c-0.8-4.1-0.5-8.2,1.3-12c2.6-5.6,7-8.9,13.1-10c5-0.8,9.6,0.1,13.8,3.1c3.3,2.5,5.3,5.8,6.1,9.8
		C395.4,301.5,395.5,303.1,395.8,304.7z M387.6,304.8c-0.1-0.5-0.1-1.2-0.2-1.9c-0.2-2.5-0.9-4.8-2.5-6.7c-2.1-2.7-4.9-4-8.3-3.5
		c-3.2,0.5-5.5,2.5-6.9,5.4c-1.1,2.4-1.4,4.9-1.3,7.5c0.1,2.1,0.5,4.2,1.4,6.1c1.5,3.2,4,5.3,7.6,5.5c3.7,0.3,6.5-1.4,8.3-4.7
		C387.2,310.2,387.5,307.6,387.6,304.8z"/>
	<path class="st1" d="M206.1,322.6c0.1-1.2,0.2-2.2,0.2-3.2c0-8.3,0-16.7,0-25c0-1.1-0.4-1.9-1.3-2.5c-0.4-0.3-0.6-1.6-0.2-2.1
		c1.2-1.4,2.5-2.7,4.5-2.7c1.4,0,2.5,0.7,3.2,1.9c0.5,0.8,0.8,1.7,1.2,2.7c0.6-0.5,1.3-1,1.9-1.6c2.6-2.1,5.6-3.3,9-3.2
		c2.7,0.2,5.4,0.8,7.5,2.7c1.8,1.6,2.8,3.7,3.2,6c0.3,1.5,0.4,3,0.5,4.5c0.1,4.4-0.1,8.8,0.1,13.2c0.1,2.7,0.3,5.5,0.4,8.3
		c0,0.1,0,0.3,0,0.4c-2.2,0.4-4.4,0.8-6.7,0.7c-0.8-0.1-1.4-0.7-1.4-1.7c0-3.4,0-6.9,0-10.2c0-3.5,0.2-6.9,0.1-10.3
		c-0.1-1.4-0.4-2.8-0.9-4.1c-0.7-1.8-2.2-2.6-4.2-2.7c-3.9-0.3-6.6,1.9-8.8,4.8c-0.2,0.2-0.2,0.6-0.2,0.9c0,6.9,0,13.7,0,20.6
		c0,2-0.5,2.6-2.6,2.7C209.8,322.5,208,322.5,206.1,322.6z"/>
	<path class="st1" d="M276.6,306.2c0,4.8,2.7,9.1,7.8,10.2c3.5,0.7,6.9,0.3,10.2-1c0.2-0.1,0.3-0.1,0.5-0.2c0.7,0.9,1,1.8,0.5,2.9
		c-0.9,2.2-2.4,3.8-4.8,4.4c-3.7,0.9-7.3,0.9-11-0.1c-5.2-1.5-8.6-4.8-10.2-9.9c-1.9-6.3-1.4-12.4,2-18.1c2.5-4.1,6.2-6.6,11-7.2
		c3.7-0.5,7.2,0,10.4,2.3c2.5,1.9,3.9,4.5,4.7,7.6c0.4,1.8,0.5,3.5,0.3,5.3c-0.1,1-0.7,1.8-1.5,2.1c-1.5,0.6-2.9,1.3-4.4,1.5
		c-2,0.3-3.9,0.4-6,0.5C282.9,306.3,279.8,306.2,276.6,306.2z M276.9,300.5c4.2,0,8.4,0,12.5,0c0.5,0,0.9-0.2,0.9-0.8
		c0-0.5,0-1-0.1-1.5c-0.2-2.2-1.1-4.1-3.2-5.1c-2.1-1-4.2-1-6.2,0.3C278.4,295.1,277.4,297.5,276.9,300.5z"/>
	<path class="st1" d="M246.3,293.8c-0.9-0.2-1.6-0.3-2.4-0.6c-1.3-0.5-1.6-1.6-0.8-2.6c1.5-1.8,3.2-3.5,4.8-5.2
		c0.7-0.7,1.4-1.3,2.1-1.9c1.3-1,2.7-1.4,4.4-1.7c-0.1,1.9-0.2,3.8-0.3,5.8c4.1,0,8.1,0,12,0c0.3,3-1.8,5.5-4.7,5.7
		c-2.4,0.1-4.9,0.2-7.3,0.4c-0.1,0.9-0.2,1.9-0.2,2.8c0,4.5-0.1,9.1,0,13.6c0,1.2,0.2,2.3,0.4,3.4c0.5,2,1.9,3,3.8,3.1
		c2,0.1,3.7-0.4,5.4-1.5c0.3-0.2,0.7-0.4,0.8-0.3c0.4,0.3,0.9,0.8,0.9,1.2c0.3,2.3-0.3,4.3-2.6,5.4c-4.1,2-8.2,2.3-12.3,0.1
		c-2.3-1.3-3.5-3.5-3.9-6c-0.2-1.2-0.3-2.4-0.3-3.7c-0.1-5.8,0-11.6,0-17.3C246.3,294.3,246.3,294,246.3,293.8z"/>
	<path class="st1" d="M344.1,288.1c1.3-0.2,2.7-0.5,4-0.7c0.4-0.1,0.8-0.1,1.2-0.1c1.8-0.2,2.5,0.4,2.6,2.2c0.1,0.9,0.1,1.8,0.1,2.7
		c0,9,0,18,0,27.1c0,0.5-0.1,1-0.2,1.4c-0.2,0.8-0.6,1.3-1.4,1.4c-1.3,0.2-2.5,0.3-3.8,0.4c-0.8,0.1-1.6,0-2.6,0
		C344.4,311.1,344.6,299.7,344.1,288.1z"/>
	<path class="st0" d="M263.3,232.2c-1.9-0.3-4-0.6-6-1.1c-6.1-1.4-11.5-4.3-16.2-8.2c-1.6-1.3-3-2.9-4.4-4.5c-0.5-0.5-0.7-1.3-0.9-2
		c-0.3-0.8,0.2-1.2,1-1c1.3,0.3,2.5,0.7,3.8,0.9c2.9,0.7,5.8,1.3,8.6,2c3.7,0.9,7.4,1.8,11.1,2.7c1.3,0.3,2.1,1.2,2.2,2.6
		c0.1,0.7,0.5,1.4,1,1.9c0.7,0.8,1.5,1.5,2.1,2.3c0.4,0.5,0.8,1.2,1,1.9c0.3,1-0.1,1.8-1.2,2C264.9,232,264.2,232.1,263.3,232.2z"/>
	<path class="st1" d="M348.3,270.7c2.3-0.2,4.1,1.8,4.1,4.3s-1.9,4.5-4.3,4.5c-2.6-0.1-4.2-1.7-4.2-4.3
		C343.9,272.6,345.7,270.7,348.3,270.7z"/>
	<path class="st0" d="M245.6,192.1c0.4-1.7,0.7-3.3,1.2-4.9c0.2-0.5,0.8-1,1.3-1.3c0.8-0.4,1.5,0.1,1.6,1c0.1,0.4,0.1,0.8-0.1,1.2
		c-0.5,1.7-1.4,3.2-2.6,4.5c-0.2,0.2-0.6,0.3-0.9,0.5C245.9,192.6,245.8,192.4,245.6,192.1z"/>
	<path class="st0" d="M266,220.5c0.9,0.2,1.6,0.3,2.2,0.6c0.4,0.2,0.8,0.6,0.8,1c0.1,0.3-0.1,0.9-0.3,1.2c-0.2,0.2-0.7,0.2-1,0.1
		c-1.4-0.5-2.7-1-4.1-1.1c-0.2,0-0.5-0.2-0.5-0.3c0-0.2,0.2-0.5,0.3-0.5C264.2,221,265.2,220.8,266,220.5z"/>
</g>
</svg>
