<?xml version="1.0" encoding="utf-8"?>
<!-- Generator: Adobe Illustrator 21.0.0, SVG Export Plug-In . SVG Version: 6.00 Build 0)  -->
<svg version="1.1" id="Layer_1" xmlns="http://www.w3.org/2000/svg" xmlns:xlink="http://www.w3.org/1999/xlink" x="0px" y="0px" width="500" height="500"
	 viewBox="0 0 500 500" style="enable-background:new 0 0 500 500;" xml:space="preserve">
<style type="text/css">
	.st0{fill:#01006C;}
	.st1{fill:#FFFF00;}
	.st2{fill:#FFFFFF;}
</style>
<g>
	<g>
		<ellipse class="st0" cx="250.8" cy="252.3" rx="58.1" ry="82.3"/>
		<path class="st1" d="M270.2,333.5c7,2.9,14,5.9,21.3,9.1c-1.6,1.2-3.1,2.4-4.6,3.2c-5.3,3.1-11.2,3.7-17.2,3.1
			c-6.5-0.6-12.7-2.4-19-4c-7.5-2-15.1-2.5-22.5,0.1c-3.4,1.2-6.6,3.1-9.9,4.7c-0.2,0.1-0.5,0.3-0.7,0.4c-0.3-2,1.1-5.8,3.8-9.3
			c2-2.7,4.5-5.1,6.8-7.7c-1.3-0.5-2.8-1.1-4.4-1.7c-14.9-6.1-27.4-15.4-36.9-28.6c-7-9.8-11.7-20.6-14.1-32.5
			c-1.6-8.1-2.3-16.4-1.6-24.6c1.8-22.8,10.2-42.8,27.1-58.6c11.1-10.3,24.3-16.6,39.3-19c14.1-2.3,27.9-1.2,41.2,4.1
			c14.9,6,26.4,16.2,35,29.7c6.8,10.8,11.1,22.6,12.9,35.2c2.9,19.9,0.3,38.9-9.2,56.8c-7.9,14.9-19.5,26.1-34.5,33.8
			C278.7,329.9,274.5,331.6,270.2,333.5z M304.1,255.4c-0.3-4.4-0.5-8.9-0.9-13.3c-1.3-12.8-4.5-25.1-10.1-36.7
			c-4.5-9.5-10.4-18.1-18.8-24.7c-7.3-5.7-15.5-9.1-24.8-9c-7.7,0.1-14.7,2.6-21.2,6.6c-9.4,5.8-16,14.2-20.9,24
			c-6.8,13.5-9.9,28-10.6,43c-0.4,9.3,0.2,18.6,2,27.8c2.4,12.7,6.8,24.7,14.2,35.4c5.8,8.3,13,15.1,22.1,19.7
			c0.7,0.3,1.7,0.7,2.4,0.4c8.5-2.7,17-2.2,25.4,0.4c0.4,0.1,1,0.1,1.4,0c2-1,4.1-2,6-3.1c13.5-8.1,22.2-20.1,27.6-34.6
			C302.1,279.7,303.9,267.7,304.1,255.4z"/>
		<path class="st0" d="M216.2,352.9l-0.3-2.4c-0.4-2.6,1.2-6.8,4.1-10.6c1.5-1.9,3.1-3.7,4.7-5.4c0.2-0.2,0.3-0.3,0.5-0.6
			c-0.7-0.3-1.4-0.6-2.2-0.9c-15.7-6.4-28.3-16.2-37.6-29.1c-7-9.7-11.9-20.8-14.4-33.1c-1.7-8.6-2.3-17.1-1.7-25.1
			c0.9-11.8,3.6-22.8,8-32.5c4.6-10.2,11.2-19.3,19.6-27.2c11-10.3,24.5-16.9,40.1-19.5c14.8-2.4,29-1,42,4.2
			c14.7,5.9,26.7,16.1,35.8,30.4c6.8,10.8,11.2,22.9,13.1,35.9c3,20.9-0.1,40.4-9.3,57.8c-7.9,15-19.8,26.6-35.2,34.5
			c-2.8,1.4-5.7,2.7-8.5,3.9c-0.2,0-0.3,0.1-0.5,0.2l20.6,8.7l-2.4,1.7c-0.5,0.3-1,0.7-1.5,1.1c-1.1,0.8-2.1,1.5-3.2,2.2
			c-5,2.9-10.8,4-18.2,3.3c-5.8-0.5-11.5-2-17-3.5c-0.7-0.2-1.5-0.4-2.2-0.6c-8.3-2.2-15.2-2.2-21.6,0.1c-2.2,0.8-4.4,1.9-6.6,3.1
			c-1,0.5-2,1-3,1.5c-0.1,0-0.2,0.1-0.4,0.2c-0.1,0-0.2,0.1-0.3,0.1L216.2,352.9z M238.9,341.6c3.8,0,7.8,0.6,12.2,1.7
			c0.7,0.2,1.5,0.4,2.3,0.6c5.3,1.4,10.9,2.9,16.5,3.4c6.7,0.6,11.8-0.3,16.3-2.9c0.7-0.4,1.4-0.9,2.1-1.5l-22.2-9.4l3.4-1.5
			c1.3-0.6,2.7-1.2,4-1.8c2.9-1.2,5.6-2.4,8.3-3.8c14.8-7.6,26.2-18.7,33.8-33.1c4.5-8.6,7.6-17.7,9-27.1c1.4-9.1,1.4-18.7,0-28.7
			c-1.8-12.5-6.1-24.2-12.7-34.6c-8.6-13.7-20.1-23.4-34.2-29.1c-12.4-5-26-6.3-40.3-4c-14.9,2.4-27.8,8.7-38.4,18.6
			c-8.1,7.5-14.4,16.3-18.8,26.2c-4.2,9.3-6.8,19.9-7.7,31.4c-0.6,7.7,0,15.8,1.6,24.2c2.4,11.7,7,22.4,13.8,31.8
			c8.9,12.4,21.1,21.8,36.2,28c1,0.4,2.1,0.8,3.1,1.2c0.4,0.2,0.8,0.3,1.2,0.5l2.2,0.8l-1.5,1.7c-0.7,0.8-1.4,1.6-2.2,2.4
			c-1.6,1.7-3.1,3.4-4.5,5.2c-1.5,2-2.5,3.9-3,5.4c0.3-0.1,0.6-0.3,0.9-0.5c2.2-1.1,4.6-2.4,7-3.2
			C231.1,342.2,234.9,341.6,238.9,341.6z M263.4,330.9c-0.4,0-0.8,0-1.1-0.2c-8.6-2.7-16.6-2.8-24.4-0.4c-1.3,0.4-2.9-0.1-3.7-0.5
			c-8.9-4.5-16.6-11.3-22.8-20.3c-7-10.1-11.7-21.9-14.5-36c-1.7-9.1-2.4-18.6-2-28.2c0.7-16.6,4.3-30.8,10.8-43.7
			c5.6-11,12.6-19.1,21.5-24.6c7.1-4.5,14.5-6.8,22.1-6.9c9.1-0.1,17.8,3,25.9,9.3c7.8,6.1,14.1,14.4,19.3,25.3
			c5.4,11.4,8.9,23.9,10.3,37.3c0.3,3.1,0.5,6.2,0.7,9.2c0.1,1.4,0.2,2.8,0.3,4.2v0v0c-0.3,13.7-2.4,25.6-6.4,36.4
			c-6,16-15.3,27.6-28.3,35.4c-1.8,1.1-3.7,2-5.6,2.9l-0.6,0.3C264.4,330.8,263.9,330.9,263.4,330.9z M263.4,327.6L263.4,327.6
			L263.4,327.6z M249,325.2c4.6,0,9.3,0.7,14.2,2.3c0,0,0.2,0,0.2,0l0.5-0.3c1.8-0.8,3.6-1.8,5.3-2.8c12.4-7.4,21.2-18.5,26.9-33.8
			c3.9-10.4,5.9-21.9,6.2-35.2c-0.1-1.4-0.2-2.8-0.3-4.1c-0.2-3-0.3-6.1-0.7-9.1c-1.3-12.9-4.7-25.1-10-36.2
			c-5-10.4-11-18.3-18.4-24.1c-7.4-5.8-14.9-8.6-23.2-8.6c-0.2,0-0.3,0-0.5,0c-6.9,0.1-13.7,2.2-20.4,6.4
			c-8.4,5.2-15,12.9-20.3,23.3c-6.2,12.4-9.7,26.2-10.4,42.3c-0.4,9.3,0.2,18.6,1.9,27.4c2.6,13.7,7.2,25,13.9,34.8
			c6,8.6,13,14.9,21.5,19.2c0.6,0.3,1.1,0.3,1.2,0.3C240.8,325.9,244.8,325.2,249,325.2z M236.8,327.1L236.8,327.1L236.8,327.1z"/>
	</g>
	<path class="st0" d="M348.1,257.7c-0.2,1.3-0.4,2.7-0.6,4.1c-0.2,1.6-1,2.7-2.5,3.1c-1.5,0.4-2.9-0.1-3.8-1.6
		c-1.2,1.6-2.7,2.2-4.5,1.4c-1.2-0.5-1.9-1.5-1.8-2.9c0.1-1.6,0.3-3.3,0.5-4.7c0.7,0.3,1.3,0.8,2,0.9c2.8,0.3,5.6,0.5,8.4,0.7
		C346.7,258.8,347.7,258.9,348.1,257.7z M336.8,259.4c-0.8-0.2-1,0.3-1.1,1c-0.2,1.4,0.7,2.4,2.4,2.6c1.7,0.2,3-0.7,3.2-2.3
		c0.1-0.7-0.1-1-0.8-1.1C339.2,259.6,338,259.5,336.8,259.4z M346.9,260.3c-1.4-0.1-2.7-0.3-4-0.3c-0.3,0-0.9,0.5-0.9,0.7
		c0.1,0.7,0.3,1.6,0.8,2c0.8,0.7,1.9,0.7,2.9,0.2C346.7,262.5,347.1,261.7,346.9,260.3z"/>
	<path class="st0" d="M329.3,314.8c-1,1.1-2,2.2-3,3.3c-1.2,1.3-2.4,1.5-3.7,0.8c-1.4-0.7-2-2.1-1.6-3.8c0-0.1,0-0.3,0.1-0.7
		c-2.4-0.1-4.7-1.4-7.2-0.6c1.1-1.9,1.2-1.9,3.5-1.5c1.3,0.2,2.6,0.5,4,0.6c0.4,0,0.8-0.1,1.3-0.1c0-0.1,0-0.3,0.1-0.4
		c-1.1-1-2.2-2-3.5-3c-0.3-0.2-0.9,0-1.5,0c0.7-0.8,1.5-1.6,2.1-2.4c0.3,0.6,0.5,1.2,1,1.7c2.1,2,4.2,3.8,6.3,5.7
		C327.8,315,328.4,315.6,329.3,314.8z M322.9,312.8c-0.3,0.9-0.7,1.5-0.9,2.2c-0.2,1,0.5,2.2,1.6,2.7c1,0.4,1.9,0.3,2.6-0.5
		c0.4-0.4,0.5-0.9,0-1.4C325.2,314.9,324.2,314,322.9,312.8z"/>
	<path class="st0" d="M270.1,156.7c0.8,2.3,1.7,4.5,2.5,6.6c-1.8-0.1-1.8-0.1-2.4-2c-0.4-1.3-0.9-2.7-1.4-4c-0.1-0.4-0.5-0.7-0.9-1
		c-0.3,2-1.8,3.9-0.5,6c-1-0.2-2.2-0.4-3-0.6c0.3-0.5,0.9-1.1,1.1-1.7c0.7-2.8,1.3-5.7,1.9-8.6c0.1-0.6-0.1-1.3-0.2-2
		c1.1,0.2,2.5,0.5,3.9,0.8c1.6,0.4,2.2,1.1,2.3,2.5c0.1,1.6-0.6,3-2,3.6C271,156.4,270.6,156.5,270.1,156.7z M267.9,155.5
		c1.5,0.6,2.8,0.1,3.4-1.1c0.6-1.5,0.2-3-1-3.6c-0.8-0.3-1.4-0.3-1.6,0.7C268.5,152.8,268.2,154.1,267.9,155.5z"/>
	<path class="st0" d="M226.1,163.9c1.3,0.8,2.4,1.6,3.4,2.3c-1.2,0.4-3-0.1-4.6-1.3c-0.3-0.3-0.7-0.6-1.1-0.7
		c-3.9-1.6-5.8-8.1-3.4-11.6c1.1-1.7,3.2-2.1,5-0.9C228.4,153.4,229.9,160.7,226.1,163.9z M227,159.3C227,159.3,227,159.3,227,159.3
		c-0.1-0.4-0.1-0.9-0.1-1.4c-0.2-2-0.7-3.9-2.1-5.4c-1.3-1.5-3-1.2-3.6,0.6c-0.3,0.8-0.3,1.7-0.3,2.6c0,2.3,0.5,4.6,2,6.5
		c0.4,0.6,1.5,1.2,2.1,1.1c0.7-0.1,1.4-1,1.7-1.7C227,160.9,226.9,160.1,227,159.3z"/>
	<path class="st0" d="M314.7,329.4c0,2.3-1.6,3.9-3.9,3.7c-3.9-0.2-8.1-5-7.7-8.9c0.2-2.1,2-3.4,4.2-3.2
		C310.9,321.5,314.7,325.8,314.7,329.4z M304.1,324.5c0.2,1.8,1.3,3.4,2.7,4.7c1.1,1.1,2.4,2,3.8,2.8c0.6,0.3,1.8,0.1,2.4-0.3
		c0.8-0.5,0.9-1.5,0.5-2.5c-0.4-1-0.9-2.1-1.5-3c-1.3-1.8-2.8-3.4-5-4C305.3,321.6,304.1,322.5,304.1,324.5z"/>
	<path class="st0" d="M195,165.7c0-3.4,2.2-5.1,4.9-4.1c3.1,1.1,6.1,5.7,5.7,9.1c-0.3,3-2.8,4.4-5.4,2.9
		C197,171.8,195.4,168.9,195,165.7z M204.6,170.4c-0.6-3-2.3-6-5.5-7.9c-1.7-1-3.3,0.1-3,2.1c0.5,3.5,2.4,6.3,5.4,8.2
		C203.2,173.9,204.6,172.9,204.6,170.4z"/>
	<path class="st0" d="M161.6,211c2.5,0.2,5.2,1.2,7.2,3.6c1,1.2,1.4,2.6,0.7,4.1c-0.6,1.4-1.9,1.9-3.4,2c-3,0.2-5.7-0.8-7.9-2.8
		c-1.3-1.2-2.2-2.7-1.5-4.6C157.3,211.8,158.8,211,161.6,211z M166.1,219.6c1.1,0,2.4,0,2.9-1.3s-0.3-2.2-1.2-3
		c-2.2-1.7-4.7-2.7-7.5-2.9c-0.5,0-1.1,0-1.6,0.2c-1.3,0.4-1.7,1.6-1,2.8c0.3,0.6,0.9,1.1,1.4,1.5
		C161.1,218.5,163.4,219.4,166.1,219.6z"/>
	<path class="st0" d="M191.9,182.2c-0.2-0.6-0.2-1.3-0.6-1.7c-2-2.5-4.1-5.1-6.2-7.6c-0.3-0.4-1.1-0.6-1.6-0.8
		c0.7-0.6,1.5-1.3,2.5-2c1.9-1.5,3.5-1.6,5.6-0.3c2.3,1.4,3.8,3.3,4.6,5.9c0.4,1.6,0,3.1-1.2,4.2
		C193.7,180.6,192.7,181.4,191.9,182.2z M185.6,171.4c0,0.1,0,0.2,0.1,0.2c2.1,2.5,4.1,5,6.2,7.6c0.8,1,1.5,1,2.2,0
		c0.4-0.6,0.8-1.6,0.7-2.3c-0.6-3.2-2.5-5.5-5.5-6.8C187.7,169.3,186.7,169.8,185.6,171.4z"/>
	<path class="st0" d="M339.8,241.6c-1.4-0.4-2.9-0.6-4.2-1.3c-2.6-1.3-2.8-4.3-0.6-6.2c2.4-2.1,7.4-2.4,10.1-0.6
		c2.4,1.5,2.5,4.4,0.3,6.1C343.8,240.8,341.9,241.3,339.8,241.6z M340.6,233.6c-1.5,0.4-3.2,0.7-4.9,1.3c-0.9,0.3-1.6,1.1-1.6,2.2
		c0,1.1,0.9,1.9,1.9,2c1.9,0.2,3.8,0.4,5.7,0.3c1,0,2.1-0.5,3.1-1c0.8-0.4,1.6-1.2,1.3-2.2c-0.2-0.7-0.9-1.5-1.6-1.8
		C343.5,234,342.2,233.9,340.6,233.6z"/>
	<path class="st0" d="M334.9,203.4c-2.5,1.1-5.1,2.2-7.7,3.4c-0.4,0.2-0.7,0.8-1.1,1.3c-0.2-0.5-0.6-1.3-0.9-2c0.7,0,1.6,0,2.2-0.2
		c2.7-1.1,5.4-2.2,8.1-3.6c0.7-0.3,1.1-1.4,1.6-2c1.1,1.7,1.1,1.7-0.1,3.6c-1.6,2.3-3.2,4.7-4.7,7.3c2.3-1.1,4.7-2.1,7-3.2
		c0.3-0.2,0.4-0.8,0.7-1.3c0.3,0.7,0.7,1.6,1,2.4c-0.8-0.7-1.6-0.4-2.4-0.1c-3.3,1.4-6.6,2.9-10.1,4.2c2.2-3.2,4.4-6.4,6.6-9.7
		C335.1,203.5,335,203.5,334.9,203.4z"/>
	<path class="st0" d="M276.2,161c0.1-2,1-4.5,3.1-6.3c1.2-1.1,2.6-1.7,4.3-1.1c1.6,0.6,2.2,2,2.3,3.6c0.1,2.8-0.7,5.3-2.7,7.4
		c-1.3,1.3-2.9,2.1-4.8,1.4C276.6,165.3,276.2,163.6,276.2,161z M284.6,157.4c0-1.7-0.5-2.9-1.4-3.3c-0.9-0.3-2.1,0.1-3.1,1.4
		c-1.5,2.1-2.3,4.5-2.4,7c0,1.1,0.1,2.4,1.4,2.8c1.2,0.4,2.2-0.3,2.9-1.2C283.6,162.2,284.4,159.8,284.6,157.4z"/>
	<path class="st0" d="M160.2,277.4c-1.4-0.5-3.1-0.9-4.4-1.7c-2.4-1.5-2.3-4.6,0.1-6.1c2.8-1.7,5.8-1.9,8.8-0.5
		c1.5,0.7,2.5,1.9,2.5,3.6c0,1.7-1.1,2.8-2.5,3.5C163.4,276.7,161.8,276.9,160.2,277.4z M161.3,269.3c-1.6,0.5-3.5,0.9-5.2,1.7
		c-0.6,0.3-1.2,1.4-1.2,2.1c0,0.6,0.8,1.5,1.4,1.8c3.2,1.3,6.3,0.8,9.2-0.8c1.5-0.9,1.5-2.8-0.2-3.6
		C164.1,269.9,162.8,269.7,161.3,269.3z"/>
	<path class="st0" d="M180.6,326.5c-0.7-0.7-1.5-1.7-2.4-2.6c-1.2-1.3-1.5-2.9-0.9-4.5c1-2.6,2.9-4.4,5.6-5.3c1.5-0.4,2.8-0.1,4,0.9
		c1,0.9,2,1.9,2.9,2.7c-0.8,0.3-1.5,0.5-2.1,1c-2.1,1.9-4.1,3.9-6.2,5.9C181,325.2,180.9,325.9,180.6,326.5z M178,321.8
		c0,0,0,0.2,0,0.3c0.5,0.7,0.9,1.5,1.5,2c0.1,0.1,1.1-0.5,1.5-0.9c1.8-1.7,3.6-3.5,5.5-5.2c1.1-1,1-1.6-0.2-2.4
		c-0.4-0.3-1.1-0.4-1.6-0.5C181.8,315,178,318.9,178,321.8z"/>
	<path class="st0" d="M198.4,339.9c0.5-0.7,1.2-1.7,1.9-2.7c0,0,0.1,0,0.2,0.1c-0.1,0.5-0.4,1.1-0.3,1.7c0.1,0.8,0.3,1.7,0.8,2.4
		c0.5,0.7,1.4,1,2.4,0.4c0.8-0.5,1-1.3,0.7-2.2c-0.3-1.1-0.9-2-1.3-3.1c-0.3-0.8-0.5-1.7-0.5-2.5c0-1.2,0.7-2.2,1.9-2.7
		c1.3-0.5,2.5-0.3,3.6,0.5c0.5,0.4,0.9,1,1.4,1.4c0.4,0.3,0.9,0.6,1.4,1c-0.6,0.9-1.3,1.9-2,2.9c0,0-0.1,0-0.2-0.1
		c0.1-0.3,0.2-0.6,0.3-1c0.3-1.2,0.2-2.4-0.7-3.3c-0.7-0.7-1.6-1.1-2.6-0.6c-1,0.5-1.3,1.4-1,2.4c0.3,1,0.7,1.9,1,2.9
		c0.3,0.8,0.6,1.8,0.6,2.6c0,1.3-0.8,2.2-2.1,2.6c-1.4,0.4-2.5-0.1-3.5-1.1C199.6,341.1,199.1,340.5,198.4,339.9z"/>
	<path class="st0" d="M255.3,147.3c0.8,0,2,0.2,3.1,0.3c2,0.2,3.3,1.4,3.7,3.4c0.5,2.5,0.3,5-0.9,7.4c-0.9,1.6-2.3,2.4-4.2,2.1
		c-1.1-0.1-2.2-0.2-3.1-0.3c0.3-0.6,0.7-1.2,0.8-1.9c0.4-2.9,0.7-5.8,1-8.8C255.7,148.7,255.4,148,255.3,147.3z M255.9,157.8
		c0,0-0.1,0-0.2,0c0.1,0.6,0.1,1.4,0.5,1.7c0.8,0.6,1.7,0.3,2.5-0.3c0.3-0.2,0.6-0.5,0.8-0.8c1.7-2.7,2-5.7,0.7-8.6
		c-0.3-0.7-1.2-1.1-2-1.5c-0.7-0.3-1.3,0-1.4,1C256.6,152.2,256.3,155,255.9,157.8z"/>
	<path class="st0" d="M192.5,319.9c-0.8,3.6-1.7,7.3-2.6,11c1.9-0.8,6.6-6.4,6.4-7.8c0.7,0.7,1.3,1.2,1.7,1.6
		c-0.6,0.2-1.3,0.3-1.7,0.8c-2.2,2.1-4.4,4.3-6.4,6.6c-0.5,0.5-0.4,1.6-0.6,2.4c-1.7-1.1-1.7-1.1-1.1-3.3c0.6-2.3,1.1-4.6,1.6-7
		c0.1-0.3,0.1-0.7,0.1-1.4c-1.9,2-3.6,3.8-5.3,5.6c-0.3,0.3-0.2,1-0.3,1.5c-0.5-0.5-1.2-1.1-1.5-1.5c0.7-0.4,1.5-0.6,2.1-1.2
		c2.2-2.1,4.3-4.4,6.4-6.6c0.3-0.3,0.5-0.7,0.7-1.1C192.2,319.6,192.3,319.8,192.5,319.9z"/>
	<path class="st0" d="M170.6,202.7c-2.2-1-4.3-2-6.6-2.9c-0.4-0.2-1,0-1.5,0.1c0.2-0.6,0.6-1.3,0.8-1.8c0.6,0.5,1.1,1.2,1.8,1.5
		c2.9,1.4,5.9,2.7,8.8,4c0.2,0.1,0.4,0.2,0.6,0.5c-3.7,0.3-7.4,0.7-11.1,1.1c0,0.1,0,0.2,0,0.3c2.6,1.1,5.2,2.4,7.8,3.4
		c0.3,0.1,0.9-0.1,1.4-0.2c-0.2,0.6-0.6,1.4-0.8,1.9c-0.6-0.5-1.2-1.1-1.9-1.5c-2.3-1.1-4.7-2.1-7-3.2c-1.1-0.6-2.2-0.6-3.4,0.4
		c0.5-1.4,0.8-2.5,2.5-2.5c2.4,0,4.8-0.4,7.1-0.6c0.4,0,0.8-0.1,1.2-0.1C170.6,203,170.6,202.8,170.6,202.7z"/>
	<path class="st0" d="M347.2,249.6c-1.1,0-2.3,0-3.7,0c0.9-0.4,1.6-0.6,2.3-1c1.1-0.6,1.3-1.7,0.7-2.5s-1.9-1.1-2.8-0.4
		c-0.8,0.7-1.5,1.6-2.2,2.5c-1.5,2-3.2,2.8-5.3,2.1c-2-0.6-2.8-2.1-2.1-4.1c0.2-0.6,0.1-1.2,0.2-1.9c1.1,0,2.4,0,3.9,0
		c-0.8,0.3-1.5,0.5-2.1,0.8c-1.2,0.6-1.8,1.9-1.2,2.9c0.6,1,2.2,1.5,3.3,0.7c0.8-0.6,1.5-1.5,2.2-2.4c1.4-2,3-2.7,4.9-2.2
		c1.9,0.4,2.6,1.8,2.1,3.7C347.3,248.4,347.3,249,347.2,249.6z"/>
	<path class="st0" d="M333.3,278.3c0.7,0.3,1.3,0.8,2,1c2.3,0.7,4.7,1.2,7,1.9c1.2,0.3,2.1,0.1,2.9-0.8c-0.1,2-0.3,2.3-2.2,2.8
		c-2.6,0.7-5.2,1.5-7.8,2.4c0,0.1,0,0.2,0,0.3c2.3,0.5,4.6,1.1,6.9,1.6c0.3,0,0.8-0.3,1.3-0.6c-0.2,0.7-0.5,1.5-0.6,2.1
		c-0.6-0.3-1.2-0.9-1.9-1.1c-3.2-0.9-6.4-1.7-10-2.6c3.8-1.2,7.4-2.3,10.9-3.4c0-0.1,0-0.2,0-0.2c-1.1-0.3-2.2-0.6-3.3-0.9
		c-1.2-0.3-2.5-0.7-3.8-0.9c-0.6-0.1-1.3,0.1-2,0.1C332.9,279.5,333.1,278.8,333.3,278.3z"/>
	<path class="st0" d="M285.5,168.1c0.4-0.9,0.8-2.1,1.3-3.2c0.1,1,0.1,2.1,0.3,3s1,1.5,2,1.3s1.8-0.9,1.7-1.9c-0.1-1-0.5-2-0.9-3
		c-0.4-1.1-1.1-2.1-1.3-3.2c-0.2-1.5,0.4-2.7,1.8-3.4c1.3-0.7,2.4-0.2,3.4,0.7c0.3,0.3,0.8,0.3,1.3,0.6c-0.3,1-0.8,2-1.2,3.1
		c0,0-0.1,0-0.2,0c0-0.6,0.1-1.3,0-1.8c-0.3-0.7-0.7-1.5-1.3-1.9c-0.3-0.2-1.5,0-1.7,0.4c-0.3,0.6-0.5,1.5-0.3,2.3
		c0.2,0.8,0.8,1.6,1.3,2.4c0.9,1.5,1.3,3,0.4,4.8c-1,2-3.2,2.4-4.9,1C286.8,168.8,286.2,168.5,285.5,168.1z"/>
	<path class="st0" d="M314.5,189.5c0.6-0.1,1.4-0.1,1.8-0.5c2.6-1.9,5.1-3.9,7.6-6c0.4-0.3,0.5-1.1,0.8-1.6c1.2,1.5,2.6,3.3,4,5.1
		c-0.6,0.6-1.2,1.1-1.6,1.5c0-0.6,0.3-1.5,0.1-2.2c-0.3-0.8-1-1.4-1.6-2.2c-1.3,1-2.6,2-4,3.2c1,0.8,1.1,2.6,3.2,2.1
		c-0.8,0.6-1.4,1.1-1.9,1.4c-0.6-1-1.1-2-1.8-3.2c-1.5,1.1-2.8,2.1-4,3.2c-0.2,0.2-0.3,0.7-0.2,0.9c0.7,1.6,2,2.4,3.8,2.4
		c-0.1,0.1-0.1,0.2-0.2,0.3c-1.8,0.9-1.8,0.9-3.1-0.7C316.4,191.9,315.4,190.6,314.5,189.5z"/>
	<path class="st0" d="M209.5,156.5c0.3,0.7,0.8,1.7,1.2,2.6c0,0.1,0,0.2,0.1,0.5c-0.7-0.6-1.1-1.1-1.7-1.5c-1.1-0.7-2.3-0.5-2.8,0.5
		c-0.5,0.9,0,2.1,1.1,2.5c1,0.3,2.1,0.5,3.2,0.7c1.9,0.4,3.2,1.3,3.7,3.3c0.4,1.8-0.7,3.4-2.6,3.7c-0.7,0.1-1.3,0.3-2.1,0.5
		c-0.4-0.9-1-2-1.6-3.4c0.8,0.7,1.3,1.3,2,1.7c1.1,0.7,2.4,0.5,3-0.4c0.6-0.9,0.2-2.4-1-3c-0.8-0.4-1.8-0.6-2.7-0.8
		c-1.8-0.3-3.4-0.9-4-2.9c-0.5-1.9,0.3-3.2,2.2-3.6C208.1,156.9,208.7,156.7,209.5,156.5z"/>
	<path class="st0" d="M304.4,175.8c-1.9,2-1.9,2-3.9,0.7c-1.2-0.8-2.5-1.6-3.7-2.4c0.5-0.4,1.2-0.8,1.6-1.4c1.5-2.3,3.1-4.7,4.5-7.1
		c0.3-0.5,0.4-1.2,0.7-1.9c1.7,1.1,3.5,2.2,5.3,3.4c-0.3,0.5-0.5,1-0.7,1.4c-0.4-0.6-0.7-1.3-1.2-1.8c-0.5-0.5-1.3-0.9-2.1-1.4
		c-0.8,1.3-1.7,2.6-2.5,3.9c1.5,1.5,2.2,1.8,3.5,1.3c-0.3,0.5-0.5,0.9-0.7,1.2s-0.4,0.7-0.8,1.1c0.2-2-1.5-2-2.5-3.1
		c-0.9,1.4-1.7,2.7-2.5,4c-0.1,0.2,0,0.7,0.1,1C300.9,176.4,302.5,176.7,304.4,175.8z"/>
	<path class="st0" d="M152.4,255.2c0-0.6-0.1-1.4-0.2-1.9c0.7,0.1,1.3,0.3,2,0.3c2.8-0.2,5.7-0.5,8.6-0.7c0.4,0,0.9,0,1.6,0
		c-3,2.1-5.7,4.1-8.6,6.1c2.2,0.5,8.4-0.4,9.1-1.5c0.1,0.9,0.2,1.6,0.3,2.1c-0.7-0.1-1.3-0.4-2-0.4c-2.5,0.1-4.9,0.4-7.4,0.6
		c-1.5,0.1-1.7,0.2-2.5,1.5c-0.6-1.6-0.4-2,0.8-2.9c2.1-1.5,4.2-3,6.3-4.5c0-0.1,0-0.2-0.1-0.3c-2.3,0.2-4.5,0.4-6.8,0.7
		C153,254.4,152.7,254.9,152.4,255.2z"/>
	<path class="st0" d="M334.9,266.3c0.6,0.5,1.1,1,1.7,1.4c2.9,1.6,5.9,3.1,8.9,4.7c0.4,0.2,0.8,0.4,1.5,0.8
		c-2.4,0.3-4.6,0.6-6.7,0.9c-1.5,0.2-3.2,0.3-4.7,0.6c-0.8,0.1-1.6,0.5-2.4,0.7c0.2-0.9,0.4-2,0.6-3.2c0.5,0.9,3.3,1.6,3.9,0.7
		c0.6-0.9,0.9-2.4,0.7-3.5c-0.1-0.9-3.1-1.4-3.9-0.7C334.6,267.7,334.8,266.9,334.9,266.3z M338.8,272.9c1.7-0.2,3.2-0.4,4.7-0.7
		c0-0.1,0-0.2,0-0.3c-1.3-0.7-2.7-1.3-4.1-2.1C339.2,270.9,339,271.8,338.8,272.9z"/>
	<path class="st0" d="M299.7,327.2c0.4,0.7,1,1.5,1.5,2.4c0,0.1,0,0.2,0.1,0.3c-0.7-0.4-1.3-1.1-2.1-1.2c-0.7-0.1-1.6,0-2.1,0.4
		c-0.7,0.6-0.6,1.7,0,2.3c0.7,0.7,1.7,1.1,2.6,1.5c0.7,0.3,1.5,0.2,2.2,0.3c1.4,0.2,2.4,1.1,2.9,2.4c0.8,1.9,0,3.3-2,3.7
		c-0.4,0.1-0.8,0.3-1.5,0.5c-0.1-0.2-0.4-0.7-0.7-1.2c-0.3-0.5-0.6-1-0.8-1.6c0.5,0.4,1,0.8,1.6,1.2c1.1,0.7,2.1,0.4,2.6-0.4
		c0.4-0.8,0-2-1-2.5c-0.7-0.3-1.6-0.4-2.4-0.5c-2.1-0.2-4-0.8-4.8-3c-0.8-2,0.1-3.6,2.2-4C298.6,327.8,299,327.5,299.7,327.2z"/>
	<path class="st0" d="M320.9,304.8c0.4-0.6,1.1-1.5,1.8-2.5c0.1,1.1,2.4,2.8,3.3,2.2c0.9-0.5,1.8-1.8,2-2.9c0.2-1-2.2-2.6-3.3-2.2
		c0.6-0.8,1.1-1.6,1.5-2.1c0.4,0.7,0.7,1.7,1.3,2.4c2.2,2.9,4.5,5.8,7,9c-3.4-1-6.6-2-9.8-2.9C323.5,305.3,322.3,305.1,320.9,304.8z
		 M331.7,306.3c0-0.1,0.1-0.1,0.1-0.2c-0.9-1.1-1.9-2.4-2.9-3.6c-0.6,0.9-1.1,1.7-1.7,2.6C328.7,305.5,330.2,305.9,331.7,306.3z"/>
	<path class="st0" d="M318.7,175.6c-1-0.9-1.6-2.3-3.4-1.7c0.5-0.4,1-0.9,1.4-1.2c2,2,4,3.9,6.1,5.9c-0.7,0.7-1.3,1.4-2,2.1
		c0.9-1.9,0.7-2.3-1.2-3.8c-2,1.9-4.1,3.9-6.1,5.9c-0.4,0.4-0.9,0.7-1.2,1.2c-0.3,0.5-0.5,1.2-0.7,1.7c-0.6-0.7-1.5-1.6-2.4-2.5
		c1.1,0.8,1.7-0.1,2.5-0.8C314,180.1,316.3,177.8,318.7,175.6z"/>
	<path class="st0" d="M230,149.7c0.7-0.1,1.8-0.3,2.8-0.5c-0.1,0.6-0.4,1.3-0.3,1.9c0.4,2.5,1,5.1,1.5,7.7c0,0.3,0.2,0.6,0.4,0.9
		c0.4,0.9,1.2,1.4,2.2,1.3c1-0.1,1.8-0.7,2-1.7c0.2-0.8,0.2-1.7,0-2.6c-0.3-2-0.7-4.1-1.2-6.2c-0.2-0.7-0.7-1.4-1.1-2
		c0.5-0.1,1.3-0.2,1.9-0.3c-0.1,0.6-0.4,1.2-0.3,1.9c0.4,2.6,1,5.3,1.3,7.9c0.3,2.6-1.2,4.1-3.6,3.9c-1.6-0.1-2.4-1.3-2.8-2.7
		c-0.5-2-0.9-4.1-1.3-6.1c-0.1-0.6-0.1-1.2-0.3-1.7C230.8,150.7,230.3,150.2,230,149.7z"/>
	<path class="st0" d="M344.8,227.6c-0.8,0.3-2,0.6-3.2,1c0.7-0.6,1.4-1.1,1.9-1.8c1.4-1.9,0.6-4.1-1.5-4.9c-2.4-0.8-6.7,0.3-8.3,2.3
		c-1.4,1.7-1.1,3.9,0.7,5.1c0.3,0.2,0.5,0.3,0.9,0.6c-2.3-0.5-3.7-2.4-3.3-4.5c0.4-2.6,2.2-4.1,4.5-4.9c2.4-0.9,4.8-0.7,6.9,1
		c1.2,1.1,1.6,2.6,1.4,4.2C344.6,226.3,344.7,226.9,344.8,227.6z"/>
	<path class="st0" d="M164.6,304.2c0.8-0.5,1.8-1.2,2.8-1.9c0,0,0.1,0.1,0.1,0.1c-0.1,0.1-0.1,0.2-0.2,0.3c-1.6,2.1-0.8,4.5,1.7,5.3
		c2.7,0.8,7.2-1.3,8.3-3.9c0.6-1.5,0-3.2-1.7-4.1c-0.9-0.4-2-0.6-2.8-0.9c2-0.4,4.6,0.8,5.5,2.7c0.9,1.9,0.3,4.2-1.5,5.7
		c-2.5,2-5.3,2.3-8.2,1.1c-1.4-0.6-2.4-1.7-3-3.2C165.5,305,165,304.7,164.6,304.2z"/>
	<path class="st0" d="M170.7,287.6c0.3,0.7,0.8,1.8,1.2,2.9c-0.9-0.4-3.5,0.5-3.4,1.5c0,1.1,0.6,2.5,1.4,3.2
		c0.7,0.7,3.2-0.4,3.4-1.5c0.3,0.6,0.5,1.1,0.8,1.6c0.1,0.2,0.2,0.5,0.2,0.7c-0.7-0.1-1.3-0.3-2-0.3c-3.7,0.3-7.4,0.6-11.4,0.9
		c2.7-2.4,5.1-4.6,7.6-6.8C169.3,289.3,170,288.4,170.7,287.6z M168.9,295.5c-0.4-1-0.8-1.9-1.2-2.8c-1.2,1.1-2.3,2.1-3.3,3.1
		c0,0.1,0.1,0.2,0.2,0.3C166,295.8,167.3,295.6,168.9,295.5z"/>
	<path class="st0" d="M341.8,211.9c0.4,1.5,0.8,2.9,1.2,4.5c-0.6-1.3-1.6-1.1-2.7-0.7c-2.5,0.8-5,1.5-7.6,2.3
		c-1.1,0.3-1.9,0.7-1.7,2.1c-0.4-1.5-0.9-3.1-1.3-4.6c0.7,1,1.5,0.9,2.4,0.6c2.6-0.8,5.3-1.6,7.9-2.4
		C341,213.3,341.8,213,341.8,211.9z"/>
	<path class="st0" d="M169.9,283.9c-0.7-0.1-1.5-0.4-2.2-0.2c-3,0.6-6.1,1.4-9.1,2.1c0.2,2.1,0.6,2.6,2.4,3.1
		c-0.5,0.1-0.8,0.2-1.1,0.2c-0.3,0-0.7,0.1-1.1,0.1c-0.9-2.7-1.7-5.3-2.7-8.1c0.8-0.3,1.6-0.5,2.3-0.7c-0.3,0.5-1,1.1-1.1,1.6
		c-0.1,1.6,0.6,2.2,2.2,1.8c2.5-0.6,5-1.1,7.5-1.8c0.7-0.2,1.7-0.3,1.8-1.5C169.2,281.9,169.6,283.1,169.9,283.9z"/>
	<path class="st0" d="M335,197.2c-0.6,0.4-1.4,1.1-2.3,1.7c0.3-1,0.8-1.9,0.9-2.8c0.2-1.5-0.8-2.6-2.4-2.8c-2.9-0.3-7.6,3.1-8.3,5.9
		c-0.3,1.5,0.4,3,2,3.4c0.6,0.2,1.2,0.2,1.9,0.3c-3.7,0.6-5.8-1.8-4.7-5.2c1.1-3.5,5.3-6.1,8.8-5.6c1.9,0.3,3.1,1.5,3.4,3.5
		C334.3,196.2,334.7,196.6,335,197.2z"/>
	<path class="st0" d="M167.3,191c3.4,1,6.6,2,9.9,2.9c1,0.3,2.1,0.4,3.2,0.6c-0.4,0.7-1,1.6-1.7,2.6c0-2.1-1.7-2-2.8-2.2
		c-1.6-0.3-1.4,1.7-2.4,2.3c1.3,2.2,2.1,2.9,3.5,2.4c-0.6,0.9-1,1.5-1.4,2.2c-0.3-0.6-0.4-1.3-0.8-1.8c-2.2-2.8-4.5-5.5-6.8-8.3
		C167.7,191.6,167.6,191.4,167.3,191z M174.6,194.4c-1.5-0.4-2.9-0.8-4.3-1.2c0,0.1-0.1,0.2-0.2,0.3c0.9,1.1,1.8,2.2,2.8,3.4
		C173.5,196,174,195.3,174.6,194.4z"/>
	<path class="st0" d="M164.7,241c0,0.7,0,1.7,0,2.8c-0.8-0.6-3.7-0.7-4,0.1c-0.3,1-0.4,2.3,0,3.2c0.3,0.9,3.2,0.9,3.9,0.1
		c0,0.8,0,1.6,0,2.2c-0.8-0.4-1.6-0.9-2.6-1.2c-3.3-1.1-6.6-2.1-10.2-3.2C156.4,243.5,160.8,242.8,164.7,241z M159.7,244.1
		c-1.5,0.4-2.8,0.8-4.2,1.2c0,0.1,0,0.2,0,0.3c1.3,0.4,2.7,0.8,4.2,1.3C159.7,246,159.7,245.1,159.7,244.1z"/>
	<path class="st0" d="M154.4,225c0.2-1.1,0.4-2.5,0.7-3.8c0.1,1.3,1,1.6,2,1.8c2.7,0.5,5.4,1,8.1,1.5c1.1,0.2,2,0.2,2.5-1
		c-0.3,1.5-0.6,3.1-0.9,4.7c0-1.3-0.8-1.6-1.8-1.9c-2.8-0.5-5.6-1.1-8.4-1.5C155.9,224.7,155.2,224.9,154.4,225z"/>
	<path class="st0" d="M183.5,309.7c-0.9-1-1.7-0.6-2.5,0c-2.2,1.7-4.5,3.3-6.8,5c-0.8,0.6-1.2,1.2-0.7,2.3c-0.8-1.1-1.7-2.2-2.4-3.2
		c0.7-0.3,1.6-0.4,2.2-0.8c2.2-1.5,4.3-3.2,6.5-4.8c0.8-0.6,1.4-1.2,0.7-2.4C181.5,307.1,182.5,308.4,183.5,309.7z"/>
	<path class="st0" d="M335,299c0.2,0,0.5,0.1,0.7,0.1c1.2,0.1,2.4-0.1,3.1-1.2c0.7-1.1,0.4-2.3-0.3-3.3c-1.9-2.3-4.4-3.7-7.4-3.8
		c-2.3,0-3.5,1.7-2.8,3.9c0.1,0.3,0.2,0.7,0.4,1.2c-2.1-2.6-1.2-5.6,1.8-6.3c3.6-0.9,8.2,1.7,9.2,5.3c0.4,1.6,0.1,3.2-1.3,4.3
		c-0.3,0.3-0.5,0.7-0.9,1.2c-0.7-0.3-1.7-0.8-2.7-1.2C334.8,299.1,334.9,299,335,299z"/>
	<path class="st0" d="M185,184.6c0.6,0.8,1.2,1.6,1.9,2.6c-1.8,1.5-3.6,3.1-5.4,4.7c0,0.1,0.1,0.3,0.2,0.4c0.7-1,0.1-1.5-0.5-2
		c-2.2-1.8-4.5-3.6-6.8-5.4c-0.7-0.5-1.4-1-2.3-0.4c0.9-0.8,1.8-1.6,2.4-2.1c0.1,0.3,0.3,1,0.8,1.4c2.2,1.9,4.6,3.7,6.9,5.5
		c0.6,0.5,1,0.5,1.6,0C185.6,187.5,185.7,187.1,185,184.6z"/>
	<path class="st0" d="M192.3,336.3c1.2,0.7,1.9-0.1,2.5-0.9c1.5-2.1,3.1-4.3,4.7-6.4c0.6-0.8,0.9-1.6,0.1-2.5
		c1.3,0.9,2.5,1.8,3.8,2.8c-1.3-0.7-1.9,0.1-2.6,1c-1.5,2.2-3.2,4.3-4.7,6.5c-0.5,0.7-0.8,1.4-0.1,2.2
		C194.7,338.1,193.6,337.2,192.3,336.3z"/>
	<path class="st0" d="M154.3,229.3c0.8,0.1,2,0.3,3.3,0.5c-1,0.3-1.8,0.4-2.5,0.7c-1.7,0.8-1.9,2.6-0.6,4c1.9,2,7.3,2.8,9.8,1.6
		c1.5-0.7,1.9-2.4,1-3.8c-0.2-0.3-0.5-0.7-0.7-1c2.4,1.2,2.3,4.1,0.8,5.3c-3.1,2.6-9.8,1.6-11.8-1.8c-0.8-1.4-0.7-2.8,0.3-4.1
		C154,230.3,154,229.9,154.3,229.3z"/>
	<path class="st0" d="M245.2,159.9c-0.9,0-1.6,0.1-2.2,0.1c0.3-0.7,0.7-1.3,0.9-2c0.9-3.5,1.7-7.1,2.6-10.8
		c1.8,4.2,2.7,8.6,4.7,12.5c-0.7,0-1.7,0.1-2.8,0.1c0.7-0.8,0.5-3.8-0.3-4c-1-0.2-2.2-0.2-3.1,0.3
		C244.1,156.6,244.4,159.3,245.2,159.9z M246.4,150.7c-0.1,0-0.2,0-0.3,0c-0.3,1.4-0.6,2.8-1,4.4c1,0,1.8-0.1,2.8-0.1
		C247.4,153.4,246.9,152,246.4,150.7z"/>
	<path class="st0" d="M312.5,315.4c0.3,0.6,0.4,1.3,0.8,1.8c2,2,4.2,4,6.3,6c0.4,0.4,1,0.5,1.7,0.9c-0.6,0.7-1.4,1.5-2,2.2
		c-0.3-0.6-0.4-1.5-0.9-1.9c-2-2-4-3.8-6-5.7c-0.7-0.6-1.4-1.3-2.4-0.5C310.9,317.2,311.9,316.2,312.5,315.4z"/>
	<path class="st0" d="M336.4,308.9c0.3,1,0.7,1.9,1,2.9c-0.2,0-0.4,0.1-0.6,0.2c-0.9-0.8-0.6-2-0.7-3
		C336.1,309,336.3,308.9,336.4,308.9z"/>
	<path class="st0" d="M328.3,182.9c0.8,0,1.7-0.1,2.5-0.1c0.2,0,0.4,0.3,0.7,0.5c-0.3,0.1-0.5,0.4-0.8,0.3c-0.8-0.1-1.6-0.3-2.4-0.4
		C328.3,183.1,328.3,183,328.3,182.9z"/>
	<path class="st2" d="M258.1,241c8.4,0.2,13.6,2.9,15.3,8.6c2.3,7.5-0.9,12.8-7.8,16.5c8.1,4.5,12.5,11.1,11.3,20.3
		c-1.2,9.5-8,13.7-16.7,15.4c-0.3,4.9,2.4,8.4,6.2,9.9c1.6,0.6,3.3,1.1,4.9,1.5c1.7,0.4,1.9,0.4,1.8,2.4c-14.5,0.2-29,0.3-43.4,0.5
		c-0.4-1.6-0.4-1.6,1.1-2c3.3-0.8,6.5-2.1,8.7-4.9c1.7-2.1,2.3-4.6,2.1-7.4c-6.7,0-13.5,0-20.2,0c-0.1-1.3,0.3-1.9,1.7-1.9
		c2.2,0,3.7-1.2,4.9-2.9c0.5-0.7,0.9-1.8,0.9-2.7c-0.1-11.9-0.4-23.8-0.6-35.7c0-2.9,0-5.8-0.1-8.7c0-3.7-2.2-6.2-6-6.8
		c-0.4,0-0.9-0.1-1.4-0.1c0-0.4,0-0.8,0-1.5c2.8,0,5.6,0,8.3,0c3.6,0,7.1-0.1,10.7-0.1c1.2,0,1.7-0.2,1.9-1.6
		c0.3-3.7,0-7.3-1.3-10.8c-0.9-2.3-2.5-3.8-5-4c-8.7-0.5-16.3,2.1-22.5,8.4c-2.6,2.7-4.9,5.8-6.6,9.3c-0.3,0.6-0.7,1.1-1.3,1.5
		c0-7.2,0-14.5,0-21.8c0.4,0,0.9,0,1.3,0c3.2,0,6.4,0,9.5,0c0.8,0,1.1-0.2,1.1-1.1c0-3.3,0-6.7,0-10c0-0.4,0.3-0.8,0.5-1.2
		c0.3,0.3,0.9,0.6,1,1c0.4,1.1,0.4,2.3,0.9,3.3c1.5,3.9,6.4,5.7,10.2,3.8c2.2-1.1,3.1-3,2.3-5.3c-0.5-1.2-1.2-2.5-2.2-3.4
		c-3.5-3.2-7.4-6.1-10.7-9.5c-3.2-3.3-2.1-8.8,2-11c1.3-0.7,2.9-1.1,4.3-1.2c9.5-0.3,19.1-0.4,28.6-0.5c0.4,0,1.1,0.3,1.4,0.7
		c5,6,10.1,12,15.1,18c0.4,0.4,0.8,0.9,1.4,1.6c0-0.7,0.1-1.1,0.1-1.5c0-4.7,0-9.4,0-14.1c0-1-0.2-1.8-1-2.5
		c-0.7-0.6-1.3-1.4-2.3-2.4c2.9,0,5.5,0,8.2,0c-0.6,0.9-1.3,1.7-1.9,2.6c-0.3,0.5-0.6,1.1-0.6,1.7c0,9.8,0.2,19.6,0.3,29.5
		c0,0.2,0,0.5,0,0.8c6.6,0,13.2,0,19.9,0c0,1.1,0.1,2,0.2,2.9c0.1,6,0.3,12,0.4,18c0,0.3-0.2,0.6-0.3,0.9c-0.2-0.2-0.5-0.4-0.5-0.6
		c-2.1-8.1-7.8-12.8-15.1-16c-3.5-1.5-7.2-2.7-11.1-2.8c-0.9,0-1.9,0-2.8,0.1c-4.1,0.7-6.6,2.8-7.1,7
		C257.7,234.1,258.1,237.5,258.1,241z M242.4,293.9c0,2.1,2.1,4.5,4.1,4.9c4.5,0.8,8.7,0.1,12.3-3c3.2-3,4.5-6.9,4.9-11.2
		c0.6-5.9-2.6-11.9-8-14.5c-3.8-1.8-7.9-1.9-12-1.5c-1.2,0.1-1.6,0.5-1.6,1.8C242.3,273.2,242.4,288.9,242.4,293.9z M233.7,221.9
		c2.4,0,5,0,7.7,0c0.2,0,0.5-0.2,0.6-0.3c0.4-1.7,1.8-2,3.2-2.2c2.5-0.4,3.5-1.5,3.5-4c-0.1-7.9-0.3-15.8-0.4-23.7
		c0-1.4-0.8-2.3-2-2.8c-0.7-0.3-1.5-0.5-2.4-0.7c-1.3-0.3-2,0.3-2.1,1.7c0,1.1,0,2.3,0,3.5c0,0.3-0.2,0.7-0.3,1.1
		c-0.3-0.2-0.7-0.4-1-0.7c-0.2-0.2-0.2-0.5-0.4-0.7c-1.7-3-5.8-4.8-9.2-3.8c-2.6,0.7-3.6,3.3-2.1,5.6c0.7,1.1,1.7,2.1,2.7,3
		c2.5,2.3,5.2,4.5,7.7,6.8c3.8,3.7,4.2,8.7,0.7,12.5C238,218.8,235.7,220.3,233.7,221.9z M242.2,264.8c4.1-0.1,8,0.3,11.9-1
		c4.4-1.5,6.4-4.6,6.6-9c0.2-3.7-1.4-6.8-4.5-8.8c-4.3-2.8-9.2-1.8-14-1.8C242.2,251.1,242.2,257.8,242.2,264.8z M251.1,195.4
		c-0.1,0-0.2,0-0.3,0.1c0,0.4,0,0.9,0,1.4c0,6.1,0.1,12.3,0.1,18.5c0,2.7,0.9,3.7,3.6,4.3c0.9,0.2,1.6,0.9,2.5,1.4
		c0.4,0.2,0.9,0.6,1.3,0.6c4.3,0,8.6,0,12.9,0c0.2,0,0.5-0.1,0.9-0.1C265.1,212.7,258.1,204,251.1,195.4z"/>
</g>
</svg>
